<?xml version="1.0" standalone="no"?>
<!DOCTYPE svg PUBLIC "-//W3C//DTD SVG 20010904//EN"
 "http://www.w3.org/TR/2001/REC-SVG-20010904/DTD/svg10.dtd">
<svg version="1.0" xmlns="http://www.w3.org/2000/svg"
 width="314.000000pt" height="333.000000pt" viewBox="0 0 314.000000 333.000000"
 preserveAspectRatio="xMidYMid meet">

<g transform="translate(0.000000,333.000000) scale(0.100000,-0.100000)"
fill="#000000" stroke="none">
<path d="M1324 2790 c-87 -22 -195 -67 -374 -153 -105 -51 -150 -79 -203 -127
-83 -77 -150 -168 -188 -260 -16 -38 -53 -107 -81 -152 -112 -180 -126 -205
-157 -265 -25 -51 -45 -73 -104 -117 -39 -30 -105 -70 -145 -90 -39 -20 -72
-40 -72 -45 0 -18 155 66 226 122 l72 56 12 -44 c14 -49 104 -195 120 -195 6
0 8 5 4 11 -4 8 4 9 27 5 l34 -5 -35 12 c-50 17 -62 27 -56 44 4 9 2 11 -6 7
-8 -5 -9 -2 -5 10 4 9 3 15 -2 12 -15 -9 -55 96 -55 144 -1 48 41 143 80 184
29 30 117 190 149 271 41 103 61 129 189 253 107 102 127 117 224 163 247 117
397 167 467 153 42 -8 150 -85 174 -125 10 -16 29 -38 44 -49 35 -28 145 -72
158 -64 5 3 21 -2 34 -10 40 -26 31 -86 -13 -86 -3 0 3 7 14 16 19 15 19 15
-1 6 -11 -6 -41 -13 -67 -17 -31 -5 -49 -13 -52 -24 -3 -11 -4 -10 -3 4 1 13
12 21 35 26 18 4 36 10 40 14 4 3 -4 4 -18 0 -14 -3 -38 -7 -53 -9 -16 -2 -33
-9 -37 -16 -6 -9 -9 -6 -12 11 -2 18 -10 25 -30 27 -16 2 -28 -1 -28 -7 0 -16
-27 -13 -87 8 -29 10 -50 14 -47 10 2 -4 -1 -9 -8 -11 -7 -3 -5 -7 6 -11 10
-4 15 -3 11 3 -3 6 -1 10 4 10 6 0 11 -7 11 -15 0 -12 -7 -14 -27 -9 -27 6
-28 6 -8 -10 20 -17 20 -17 -3 -6 -12 6 -20 15 -17 21 4 5 2 9 -4 9 -5 0 -12
-6 -14 -12 -3 -7 -6 -4 -6 7 -1 17 -3 17 -11 5 -8 -12 -10 -11 -10 8 0 19 3
21 19 12 11 -5 23 -10 28 -10 4 1 -4 8 -19 16 -16 8 -28 20 -28 27 0 7 -8 3
-17 -8 -15 -20 -15 -20 -10 2 3 12 0 24 -5 25 -6 2 -11 32 -11 66 0 44 -3 60
-11 52 -5 -5 -10 -31 -11 -58 0 -26 -4 -50 -10 -54 -6 -5 -5 -8 3 -8 6 0 12
-8 11 -17 0 -11 -3 -13 -6 -5 -2 6 -14 12 -26 11 -21 0 -21 -1 -2 -9 17 -7 16
-9 -10 -10 -26 -1 -27 -3 -10 -10 15 -6 6 -9 -35 -11 -55 -2 -55 -2 -15 -9
l40 -7 -55 -3 c-51 -2 -53 -3 -20 -10 19 -4 26 -8 15 -9 -55 -5 -101 -14 -109
-21 -5 -5 0 -7 10 -4 15 4 20 0 21 -15 1 -12 -2 -21 -8 -21 -5 0 -9 5 -9 11 0
6 -7 3 -16 -5 -8 -9 -21 -16 -27 -16 -7 0 -6 -4 3 -10 13 -8 13 -10 -2 -10 -9
0 -20 -5 -24 -12 -5 -7 -3 -8 6 -3 10 6 11 4 4 -6 -5 -8 -7 -22 -5 -33 1 -10
-3 -23 -11 -28 -10 -8 -9 -9 4 -5 9 3 33 9 52 13 45 8 47 -7 6 -36 -16 -12
-30 -29 -30 -39 0 -13 12 -7 47 25 39 36 49 41 56 28 6 -10 3 -24 -7 -40 -18
-26 -7 -31 23 -12 27 16 76 -6 101 -46 22 -36 60 -74 60 -60 0 5 -20 35 -45
66 -33 42 -41 59 -32 66 34 29 144 25 133 -4 -3 -8 -1 -14 4 -14 6 0 9 -5 8
-11 -2 -6 4 -14 12 -16 13 -4 13 -3 0 7 -12 9 -11 10 8 5 14 -4 22 -2 22 6 0
7 3 9 7 6 10 -10 -30 -44 -47 -40 -8 1 2 -5 23 -15 21 -10 35 -22 32 -29 -2
-7 0 -13 6 -13 6 0 3 -7 -6 -16 -9 -9 -13 -19 -10 -22 3 -4 11 0 16 8 9 13 10
13 6 0 -2 -8 -13 -15 -25 -14 -13 0 -18 -4 -14 -10 15 -24 10 -37 -10 -30 -15
4 -18 3 -13 -6 5 -9 1 -10 -16 -6 -13 3 -18 3 -11 0 6 -3 12 -15 11 -27 0 -21
-1 -21 -9 -2 -6 14 -9 15 -10 5 0 -12 -3 -11 -11 3 -5 9 -15 17 -22 17 -8 0
-6 -4 3 -11 11 -8 7 -9 -19 -5 -18 3 -37 6 -42 6 -5 0 -9 8 -10 18 0 15 -1 14
-8 -2 -7 -19 -8 -19 -13 2 -4 14 -1 22 11 25 9 3 -4 5 -29 6 -44 1 -46 3 -63
46 -11 25 -23 45 -28 45 -11 0 -12 -13 0 -26 16 -17 22 -64 9 -64 -10 0 -10
-2 1 -9 10 -7 10 -10 1 -13 -14 -4 -22 -128 -9 -128 4 0 14 7 23 15 8 8 32 16
53 16 l38 2 -40 8 c-33 6 -29 7 25 5 36 -2 81 -11 100 -20 19 -9 26 -14 15
-10 -11 3 -33 7 -50 10 -30 4 -30 4 3 -6 43 -14 41 -21 -5 -16 -21 2 -28 1
-15 -1 14 -3 22 -12 22 -24 0 -18 -5 -20 -32 -15 l-33 5 33 -11 c27 -9 35 -9
43 3 11 18 10 1 -1 -26 -5 -11 -9 -14 -9 -7 -1 6 -9 12 -18 12 -15 0 -16 -2
-3 -10 12 -7 8 -10 -15 -10 -23 0 -27 -3 -15 -10 12 -8 10 -10 -10 -11 -23 0
-23 -1 -5 -9 18 -8 18 -9 -5 -10 -23 -1 -23 -2 -5 -10 17 -7 15 -9 -12 -9 -22
-1 -33 -6 -33 -16 0 -8 -7 -15 -15 -15 -8 0 -15 -4 -15 -9 0 -5 -13 -11 -30
-13 -16 -3 -30 -1 -30 4 0 4 12 9 28 9 24 2 25 2 4 6 -22 4 -23 5 -5 18 16 12
13 13 -19 6 -32 -8 -38 -6 -43 10 -4 11 -11 19 -16 19 -6 0 -7 5 -4 10 10 15
-11 12 -58 -10 -23 -11 -60 -26 -82 -35 -28 -11 -31 -13 -10 -9 47 11 105 13
100 4 -3 -4 2 -10 10 -14 8 -3 15 -11 15 -18 0 -9 -3 -8 -10 2 -5 8 -10 11
-10 5 0 -5 -4 -4 -9 4 -7 11 -15 12 -32 5 l-23 -11 22 -19 c12 -10 22 -23 22
-29 0 -5 -4 -4 -8 3 -7 10 -14 10 -39 0 -16 -7 -29 -19 -27 -26 1 -7 0 -8 -3
-2 -2 5 -12 10 -21 11 -9 0 3 8 28 16 25 9 39 18 32 21 -6 2 -10 8 -6 13 3 5
0 9 -5 9 -6 0 -11 -6 -11 -14 0 -13 -30 -27 -85 -39 -14 -3 -11 -5 10 -7 30
-2 30 -2 5 -11 -23 -8 -22 -8 6 -4 28 4 31 2 27 -16 -3 -12 -9 -17 -12 -12 -3
6 -43 7 -91 3 -71 -6 -77 -7 -35 -10 33 -2 41 -4 23 -7 -16 -3 -28 -11 -28
-19 0 -8 -4 -12 -10 -9 -5 3 -10 -2 -10 -12 0 -15 -2 -16 -10 -3 -8 12 -10 11
-10 -7 0 -13 -4 -23 -10 -23 -5 0 -7 7 -4 15 4 10 0 15 -12 15 -11 0 -30 3
-44 5 -16 3 -12 0 10 -9 32 -13 33 -15 10 -15 -15 -1 -20 -4 -14 -9 9 -5 8
-11 -2 -20 -12 -11 -14 -9 -14 12 0 24 -5 27 -75 51 -14 4 -12 1 5 -9 16 -10
19 -15 10 -16 -13 0 -13 -1 0 -10 20 -13 39 -12 20 1 -13 8 -12 10 4 7 11 -2
20 -11 22 -21 3 -19 1 -19 -51 -3 -11 3 -3 -2 17 -12 21 -9 38 -23 38 -31 0
-9 8 -11 26 -7 21 6 23 5 13 -7 -16 -16 -49 -11 -49 8 0 7 -7 16 -16 19 -22 8
-26 8 -19 -4 8 -13 -5 -13 -25 0 -13 9 -13 10 0 10 9 1 5 6 -10 15 -29 16 -52
20 -30 4 11 -8 6 -9 -20 -5 l-35 6 39 -15 c50 -19 60 -30 21 -21 l-30 6 25
-15 c28 -16 44 -19 36 -6 -3 4 7 8 23 7 15 -1 28 -6 28 -13 0 -6 -9 -10 -19
-8 -10 2 -18 0 -18 -5 0 -5 -8 -7 -17 -4 -15 5 -16 4 -3 -5 8 -5 25 -8 36 -5
12 3 25 1 28 -4 9 -15 -64 -8 -107 11 -21 9 -36 21 -33 26 7 10 -52 26 -61 17
-4 -3 0 -6 8 -6 8 0 22 -9 32 -20 16 -19 16 -20 -1 -21 -9 0 -3 -6 15 -12 40
-15 52 -27 21 -21 -16 3 -13 0 10 -11 18 -9 30 -19 28 -24 -6 -9 24 -25 32
-17 2 3 2 11 0 18 -3 7 -6 17 -6 23 0 5 -11 13 -23 17 -12 5 -20 11 -17 13 3
3 26 -4 52 -15 51 -21 70 -26 46 -10 -20 13 0 13 38 -1 25 -8 29 -13 19 -24
-9 -10 -14 -9 -25 4 -7 9 -11 10 -7 4 8 -16 5 -16 -40 3 -20 8 -39 13 -42 10
-2 -2 5 -7 16 -11 25 -7 27 -23 6 -31 -8 -4 -12 -10 -10 -15 3 -5 -6 -11 -20
-15 -13 -3 -23 -10 -20 -14 3 -5 -4 -6 -15 -3 -11 3 -20 9 -20 14 0 5 8 6 17
3 16 -5 16 -4 3 6 -12 9 -9 10 15 5 16 -4 26 -3 22 1 -5 5 -26 9 -47 9 -30 0
-36 -2 -28 -12 8 -9 7 -13 -3 -13 -8 0 -6 -5 6 -13 12 -9 14 -16 7 -21 -6 -4
-8 -14 -5 -24 5 -15 4 -16 -8 -1 -21 24 -50 32 -42 12 5 -12 3 -14 -7 -8 -10
6 -12 4 -7 -9 6 -15 3 -17 -18 -12 -18 5 -23 3 -19 -7 3 -10 -2 -13 -18 -11
-34 4 -35 5 -13 14 15 6 6 9 -32 9 -30 1 -53 -3 -53 -9 0 -6 10 -8 23 -5 18 5
23 2 24 -15 1 -11 -2 -18 -6 -16 -4 3 -23 -15 -41 -41 -32 -44 -71 -86 -215
-234 -65 -66 -81 -99 -47 -99 11 0 13 3 5 8 -15 10 6 38 38 50 19 8 28 5 46
-14 14 -16 28 -22 39 -17 13 5 15 3 9 -7 -6 -10 -4 -12 8 -7 10 4 17 2 17 -4
0 -7 -11 -9 -27 -5 -16 3 -22 3 -15 0 6 -3 10 -9 7 -14 -3 -4 3 -6 14 -3 23 6
39 -16 20 -28 -12 -7 -12 -9 0 -9 8 0 12 -2 9 -5 -8 -9 -38 6 -32 16 7 12 -3
11 -27 -1 -13 -7 -19 -7 -19 0 0 5 6 10 13 10 6 0 4 5 -5 11 -10 5 -18 15 -18
22 0 7 4 6 10 -3 8 -13 10 -13 10 2 0 19 -26 48 -43 48 -15 0 -39 -15 -38 -24
3 -24 -2 -34 -21 -45 -13 -6 -16 -10 -6 -7 10 3 18 -3 21 -16 3 -12 11 -18 19
-16 7 3 18 0 25 -7 10 -10 6 -14 -14 -20 -19 -4 -23 -9 -14 -14 10 -6 9 -10
-3 -14 -9 -4 -13 -14 -11 -28 6 -32 12 -34 50 -16 44 21 40 21 42 -2 1 -12 -7
-21 -20 -25 -22 -5 -22 -5 -2 11 18 14 18 15 2 9 -10 -3 -21 -6 -23 -6 -2 0
-4 -6 -4 -14 0 -8 -10 -16 -22 -18 -13 -2 -22 -9 -20 -16 1 -6 -2 -12 -8 -12
-13 0 -13 -30 2 -85 11 -43 11 -46 -11 -61 -12 -9 -20 -22 -17 -30 3 -8 1 -14
-5 -14 -9 0 -7 -20 6 -66 4 -12 2 -25 -4 -28 -6 -4 -11 -23 -11 -43 l0 -36
103 101 c56 55 127 121 157 146 30 25 69 59 85 77 38 41 200 161 252 188 42
21 109 31 368 57 88 8 205 26 260 39 119 29 300 91 335 114 14 10 54 30 90 45
35 15 89 44 120 65 248 167 341 229 447 295 115 73 218 154 342 270 64 59 86
113 70 170 -5 20 -19 41 -31 47 -19 10 -16 14 42 51 35 22 92 53 126 69 82 39
124 93 124 159 0 34 -5 52 -20 65 -25 23 -25 32 -1 40 11 3 34 19 50 35 28 25
31 34 31 85 0 31 -5 65 -10 76 -14 25 -62 49 -98 49 -27 0 -30 4 -35 40 -13
101 -62 125 -237 116 -133 -6 -299 -32 -315 -48 -7 -7 -2 -9 15 -5 47 11 185
26 290 32 128 8 173 -6 196 -60 19 -47 18 -54 -11 -67 -14 -6 -25 -18 -25 -27
0 -12 -2 -13 -8 -3 -11 16 -87 6 -107 -15 -12 -12 -15 -10 -21 14 -9 37 -51
120 -65 128 -6 4 -1 -11 11 -34 11 -23 23 -60 26 -83 l6 -41 -43 5 c-24 3 -36
3 -26 1 28 -7 20 -21 -9 -15 -19 3 -25 1 -20 -7 6 -9 0 -10 -21 -5 -27 6 -27
6 -8 -10 19 -16 17 -16 -19 -1 -48 19 -55 19 -30 0 18 -14 17 -14 -9 -5 -36
13 -46 13 -27 -1 13 -8 12 -10 -3 -7 -10 2 -17 6 -15 9 2 3 -3 13 -11 22 -7
10 -10 17 -5 17 5 0 3 4 -5 9 -7 5 -14 22 -15 38 -1 30 -24 68 -34 58 -3 -2 1
-11 8 -20 7 -8 10 -15 7 -15 -3 0 -1 -15 3 -32 5 -18 12 -49 15 -68 3 -19 8
-36 10 -38 2 -2 -4 -13 -14 -24 -15 -15 -27 -18 -57 -14 -22 3 -31 3 -21 0 9
-3 17 -10 17 -15 0 -6 -4 -8 -9 -4 -5 3 -12 1 -16 -5 -3 -5 -26 -10 -51 -10
-31 0 -44 -4 -44 -14 0 -15 -16 -16 -39 -2 -10 6 -12 5 -7 -2 4 -7 1 -12 -7
-12 -7 0 -21 16 -31 36 -9 20 -19 34 -22 31 -3 -3 0 -16 7 -29 l12 -23 -23 20
-23 20 8 -20 c4 -11 8 -28 9 -37 0 -10 5 -18 10 -18 5 0 1 -7 -10 -15 -16 -13
-16 -14 -1 -9 25 9 21 -5 -5 -16 -23 -9 -23 -9 2 -10 25 -1 25 -1 -5 -15 -22
-11 -24 -13 -6 -9 15 4 21 2 17 -4 -3 -6 0 -12 6 -15 7 -2 1 -8 -14 -12 -15
-4 -25 -12 -24 -18 2 -7 1 -9 -1 -4 -3 4 -9 7 -14 7 -6 0 -7 -4 -4 -10 3 -6
-1 -7 -10 -4 -10 4 -14 1 -12 -7 2 -8 2 -11 0 -6 -3 4 -9 7 -14 7 -6 0 -7 -4
-4 -10 4 -6 -1 -7 -11 -3 -13 5 -15 3 -9 -7 5 -8 4 -11 -3 -6 -18 11 -62 -5
-62 -22 0 -23 -10 -9 -16 22 -3 20 0 26 13 27 16 0 15 2 -2 9 -13 6 -15 9 -5
9 12 1 12 3 2 10 -13 8 -25 57 -26 109 -1 12 -7 22 -16 22 -13 0 -13 1 0 10
12 8 12 10 -5 10 -17 0 -17 2 -5 10 10 6 11 10 3 10 -23 0 -14 20 14 31 92 35
123 68 123 132 0 24 5 36 18 40 252 74 263 76 287 67 16 -6 25 -6 25 0 0 18
-49 22 -102 10 -29 -7 -91 -26 -137 -41 -73 -25 -87 -27 -100 -15 -9 7 -47 29
-86 47 -80 37 -171 97 -224 146 -78 72 -153 90 -257 63z m357 -167 c13 -16 12
-17 -3 -4 -10 7 -18 15 -18 17 0 8 8 3 21 -13z m-891 -97 c0 -2 -8 -10 -17
-17 -16 -13 -17 -12 -4 4 13 16 21 21 21 13z m890 -56 c0 -13 -11 -13 -30 0
-12 8 -11 10 8 10 12 0 22 -4 22 -10z m1209 -15 c31 -15 47 -56 33 -81 -11
-20 -111 -55 -137 -48 -16 4 -17 3 -5 -5 11 -8 12 -11 2 -11 -7 0 -10 -5 -6
-12 4 -7 3 -8 -4 -4 -7 4 -12 15 -12 25 0 24 -11 33 -26 20 -9 -7 -14 -5 -19
10 -4 14 7 32 42 69 52 55 83 63 132 37z m-1262 -27 c-3 -7 -5 -2 -5 12 0 14
2 19 5 13 2 -7 2 -19 0 -25z m20 0 c-3 -8 -6 -5 -6 6 -1 11 2 17 5 13 3 -3 4
-12 1 -19z m1057 -93 c3 -10 -1 -15 -12 -16 -14 -1 -14 -2 2 -6 15 -4 16 -7 5
-14 -11 -7 -9 -9 6 -9 32 0 -4 -20 -37 -20 -15 0 -30 -4 -33 -10 -3 -5 0 -7 8
-4 8 3 17 -1 19 -8 4 -10 -5 -12 -36 -10 -28 2 -37 0 -27 -6 16 -12 -3 -27
-21 -16 -8 5 -9 2 -5 -9 3 -10 2 -17 -2 -17 -5 0 -11 7 -15 15 -3 10 -17 14
-38 13 l-33 -1 33 -4 c17 -2 32 -9 32 -15 0 -6 -10 -8 -22 -4 -13 3 -31 6 -42
6 -12 0 -16 5 -12 15 3 8 0 15 -7 16 -9 0 -9 2 1 6 6 2 9 9 6 15 -5 7 2 9 19
6 18 -4 24 -1 20 9 -4 9 0 11 13 6 17 -6 17 -5 5 10 -12 15 -10 17 18 17 17 0
31 5 31 10 0 6 14 10 30 10 18 0 33 6 36 15 4 8 16 15 29 15 13 0 25 -7 29
-15z m176 -5 c-8 -5 -19 -10 -25 -10 -5 0 -3 5 5 10 8 5 20 10 25 10 6 0 3 -5
-5 -10z m-60 -24 c0 -2 -7 -6 -15 -10 -8 -3 -15 -1 -15 4 0 6 7 10 15 10 8 0
15 -2 15 -4z m-680 -51 c0 -5 -5 -3 -10 5 -5 8 -10 20 -10 25 0 6 5 3 10 -5 5
-8 10 -19 10 -25z m-450 -60 c0 -5 -5 -3 -10 5 -8 12 -10 12 -10 1 0 -8 -2
-12 -5 -9 -3 3 -2 13 1 22 5 14 9 15 15 4 5 -7 9 -17 9 -23z m646 16 c-3 -5 3
-11 14 -14 12 -3 18 -1 14 5 -4 6 -1 9 7 6 19 -6 18 -70 -1 -75 -13 -4 -13 -3
0 6 18 13 1 14 -19 2 -11 -7 -9 -10 8 -16 11 -3 21 -10 21 -15 0 -5 -7 -6 -17
-3 -11 4 -14 3 -9 -5 5 -9 0 -9 -19 -2 -33 13 -44 13 -25 0 13 -8 12 -10 -3
-10 -11 0 -15 -5 -11 -11 4 -8 -1 -9 -17 -4 -19 5 -21 4 -9 -4 12 -9 11 -11
-9 -11 -13 0 -32 -10 -42 -22 -16 -17 -19 -18 -19 -5 0 12 -9 17 -32 17 -25 0
-29 3 -18 10 13 8 12 10 -4 10 -15 0 -16 3 -6 15 11 13 10 14 -4 9 -9 -3 -16
-1 -16 5 0 6 15 11 33 11 25 0 29 3 17 11 -12 8 -7 9 18 6 38 -4 41 0 10 13
-22 8 -21 9 7 10 32 0 56 11 58 26 1 5 6 8 10 6 5 -1 5 3 1 9 -5 9 1 10 20 5
17 -4 25 -3 22 3 -3 5 0 12 6 14 19 8 20 8 14 -2z m79 -1 c3 -5 1 -10 -4 -10
-6 0 -11 5 -11 10 0 6 2 10 4 10 3 0 8 -4 11 -10z m421 -9 c-3 -5 3 -11 15
-14 23 -6 23 -35 -1 -55 -13 -10 -12 -11 4 -5 13 4 17 3 12 -5 -4 -7 -13 -12
-21 -12 -8 0 -16 -4 -19 -9 -4 -5 4 -7 16 -5 13 2 -7 -10 -44 -28 -40 -18 -68
-38 -69 -47 0 -10 -2 -11 -5 -4 -4 8 -17 10 -37 7 -25 -4 -28 -3 -17 5 13 9
13 11 -1 11 -9 0 -28 15 -43 34 l-26 35 23 7 c12 3 29 12 37 19 8 7 35 20 60
28 25 9 61 22 80 31 42 18 43 18 36 7z m-1182 -17 c3 -8 2 -12 -4 -9 -6 3 -10
10 -10 16 0 14 7 11 14 -7z m-118 -24 c-1 -26 -3 -28 -13 -14 -9 12 -9 19 0
30 7 7 12 13 13 14 1 0 1 -14 0 -30z m981 8 c2 -18 0 -20 -7 -8 -8 12 -10 13
-10 1 0 -8 -2 -12 -5 -9 -7 7 5 38 14 38 4 0 8 -10 8 -22z m-72 -17 c3 -5 0
-13 -6 -17 -7 -4 -9 -3 -5 4 3 5 0 13 -6 15 -9 4 -10 6 -1 6 6 1 14 -3 18 -8z
m-765 -21 c0 13 1 13 10 0 5 -8 10 -19 10 -25 0 -5 -5 -3 -10 5 -9 13 -10 13
-10 0 0 -13 -1 -13 -10 0 -5 8 -10 20 -10 25 0 6 5 3 10 -5 9 -13 10 -13 10 0z
m67 -42 c-3 -7 -5 -2 -5 12 0 14 2 19 5 13 2 -7 2 -19 0 -25z m340 -10 c-3 -8
-6 -5 -6 6 -1 11 2 17 5 13 3 -3 4 -12 1 -19z m539 -29 c19 -37 18 -59 -3 -60
-15 0 -15 -2 2 -9 17 -7 16 -9 -10 -10 -16 -1 -24 -4 -17 -7 6 -2 12 -9 12
-14 0 -6 -4 -7 -10 -4 -5 3 -10 -1 -10 -9 0 -9 -9 -16 -21 -16 -11 0 -18 -4
-15 -8 2 -4 -5 -9 -16 -9 -12 -1 -25 -8 -29 -15 -5 -8 -27 -13 -53 -13 -24 0
-42 -4 -39 -9 3 -5 0 -7 -8 -4 -8 3 -14 9 -14 14 -1 14 -36 76 -41 71 -2 -2 3
-24 11 -48 23 -65 26 -99 7 -91 -8 3 -13 1 -10 -4 4 -5 0 -20 -8 -34 -7 -14
-13 -21 -14 -17 0 5 5 17 10 28 8 13 7 19 0 19 -6 0 -8 5 -4 12 4 7 3 8 -5 4
-6 -4 -9 -12 -6 -17 4 -5 1 -17 -5 -26 -11 -17 -11 -17 -6 0 3 9 1 17 -4 17
-6 0 -10 -5 -10 -11 0 -6 -7 -8 -16 -5 -8 3 -12 2 -9 -4 3 -6 -2 -10 -12 -10
-15 0 -16 -2 -3 -10 13 -8 13 -10 -1 -10 -9 0 -21 -10 -27 -22 -11 -21 -11
-21 -7 7 3 17 2 24 -1 18 -3 -7 -18 -13 -34 -13 -22 0 -31 7 -39 28 -10 26
-11 26 -8 -10 2 -21 -1 -38 -5 -38 -4 0 -8 5 -8 10 0 6 -6 10 -14 10 -8 0 -18
17 -24 38 -8 35 -9 33 -11 -33 -1 -38 -3 -76 -3 -82 -1 -7 -13 -13 -27 -14
l-26 -1 25 -8 c14 -4 20 -8 14 -9 -15 -1 -24 -61 -10 -62 6 0 5 -3 -2 -6 -6
-2 -10 -9 -6 -14 3 -5 -2 -12 -10 -15 -9 -3 -13 -10 -11 -15 3 -4 -3 -17 -15
-29 -18 -18 -18 -20 -2 -21 10 0 12 -3 5 -6 -7 -2 -13 -11 -13 -19 0 -8 -10
-14 -22 -15 -22 -1 -22 -1 2 -9 21 -7 22 -8 5 -9 -17 -1 -17 -3 -5 -11 12 -7
9 -12 -17 -21 -26 -9 -31 -14 -24 -27 7 -13 4 -17 -12 -18 -12 -1 -33 -5 -47
-8 l-25 -7 25 15 c32 20 22 20 -24 1 -41 -17 -47 -25 -13 -18 21 4 21 4 -3
-12 -18 -11 -19 -14 -5 -9 33 11 58 10 61 -4 1 -7 0 -8 -3 -2 -8 17 -23 11
-17 -7 4 -13 3 -14 -3 -5 -12 16 -44 5 -37 -12 3 -8 -13 -16 -51 -23 -40 -7
-55 -7 -52 1 2 6 -2 33 -9 59 -7 27 -11 57 -9 68 2 10 -1 19 -6 19 -6 0 -7 5
-4 10 4 6 -7 10 -27 9 -31 -1 -32 -1 -8 -9 23 -7 23 -8 -10 -11 l-35 -2 33 -4
c18 -2 30 -9 27 -14 -4 -5 -1 -9 6 -9 7 0 9 -10 7 -25 -3 -14 -2 -25 1 -25 4
0 8 -18 9 -40 2 -27 -1 -40 -10 -40 -9 0 -9 -3 2 -10 12 -8 10 -10 -10 -11
-17 -1 -19 -3 -8 -6 14 -4 15 -8 5 -24 -6 -10 -21 -19 -32 -19 -17 0 -18 -2
-5 -11 11 -8 4 -9 -28 -6 -40 5 -42 4 -25 -10 10 -8 12 -12 6 -8 -7 3 -13 0
-13 -7 0 -15 -75 -18 -100 -4 -8 4 -4 -2 10 -14 l25 -21 -40 16 c-35 13 -37
13 -21 0 11 -8 24 -15 30 -15 5 0 7 -2 4 -5 -3 -3 -16 -1 -30 4 -23 9 -25 7
-20 -16 4 -24 3 -24 -19 -13 -14 8 -24 9 -26 3 -2 -5 -18 -8 -36 -6 -25 4 -29
2 -17 -6 13 -9 13 -11 -2 -11 -9 0 -19 -6 -21 -12 -3 -8 -6 -6 -6 5 -1 15 -12
17 -80 17 -44 0 -82 -3 -84 -7 -3 -5 30 -7 74 -5 79 4 88 0 68 -28 -9 -12 -10
-12 -5 4 6 18 2 19 -91 13 -60 -4 -90 -3 -78 3 28 12 2 12 -29 0 -23 -8 -38 2
-18 13 8 4 -3 2 -38 -7 -19 -5 -16 -2 10 13 45 26 34 26 -24 2 -24 -11 -46
-16 -48 -11 -2 5 -13 7 -25 4 -15 -4 -20 -11 -15 -22 5 -14 4 -15 -10 -2 -14
14 -14 16 6 28 19 11 19 12 -9 6 -16 -3 -36 -7 -42 -10 -7 -2 -13 1 -13 6 0 6
10 10 23 10 12 1 36 8 52 16 17 8 21 12 10 8 -43 -12 -119 -24 -149 -23 -28 2
-28 2 9 9 l40 7 -38 2 c-21 0 -36 5 -33 10 4 5 -6 14 -21 19 -24 9 -20 11 37
13 l65 2 -55 7 -55 7 50 3 50 3 -50 7 -50 7 45 3 45 3 -45 7 c-25 4 -39 8 -32
8 6 1 12 7 12 13 0 5 -4 7 -10 4 -15 -9 -12 4 5 21 8 9 15 11 15 5 0 -6 18
-10 43 -10 l42 2 -40 6 -40 7 50 8 c28 5 68 10 90 12 22 1 51 6 64 10 14 4 22
3 19 -2 -5 -8 11 -9 68 -5 6 1 11 7 11 15 0 9 -11 13 -30 12 -19 -1 -31 5 -34
14 -4 12 -3 12 5 1 6 -8 17 -11 32 -6 17 5 19 9 9 16 -10 6 -8 10 11 18 22 8
22 10 5 11 -16 0 -17 2 -6 9 11 7 10 10 -5 14 -10 3 1 4 26 2 34 -3 39 -2 20
4 -16 6 -19 9 -8 10 9 1 19 5 23 10 3 6 -7 6 -27 1 -20 -6 -28 -6 -22 0 5 5
34 14 64 19 36 6 45 9 25 10 -42 2 -12 21 33 21 20 0 31 4 27 10 -4 6 6 10 22
11 25 0 26 1 8 9 -16 7 -14 9 15 9 26 1 31 4 20 11 -12 8 -10 10 10 11 24 2
24 2 3 6 -27 5 -27 3 -8 39 8 16 15 22 15 14 0 -10 17 -20 47 -28 36 -10 44
-15 33 -22 -17 -11 -9 -13 15 -3 14 5 11 10 -16 25 l-34 19 30 -5 c17 -3 24
-3 18 0 -7 3 -12 15 -12 27 1 19 2 20 6 3 4 -15 7 -16 14 -5 7 11 9 11 9 -3 0
-10 5 -18 11 -18 5 0 8 4 5 9 -3 5 1 12 9 15 13 4 14 2 5 -14 -6 -11 -8 -20
-5 -20 3 0 1 -9 -5 -20 -9 -16 -8 -20 4 -20 13 0 47 48 46 65 -1 23 2 26 16
21 9 -3 28 -8 42 -11 23 -5 24 -4 7 4 -18 9 -17 10 9 10 38 1 31 7 -19 14 -28
5 -34 4 -20 -3 13 -6 15 -9 5 -9 -8 0 -22 4 -30 9 -9 6 -10 10 -3 10 6 0 10 9
8 20 -5 24 -7 23 53 8 42 -11 45 -13 22 -19 l-25 -7 28 -1 c15 -1 27 4 27 11
0 6 3 8 6 5 4 -4 2 -13 -4 -20 -12 -14 -6 -27 12 -27 6 0 4 5 -4 10 -11 7 -6
10 22 10 34 0 37 -2 40 -32 2 -17 8 -33 14 -35 8 -3 10 12 6 47 -4 49 -4 50
22 50 18 0 26 6 27 18 1 15 2 15 6 1 3 -12 11 -15 26 -11 28 7 87 42 87 51 0
4 23 17 51 29 28 13 60 32 72 44 12 11 16 18 10 14 -7 -4 -13 -2 -13 3 0 6 7
11 17 11 9 0 14 2 11 5 -10 10 -68 -8 -68 -21 0 -8 -5 -14 -11 -14 -5 0 -8 -4
-5 -9 4 -5 -3 -7 -14 -4 -16 4 -19 2 -13 -13 6 -16 5 -17 -9 -4 -15 14 -13 17
15 32 44 24 29 22 -27 -2 -44 -20 -65 -39 -28 -26 14 5 14 4 -2 -9 -11 -8 -26
-15 -33 -15 -7 0 -13 -8 -14 -17 0 -11 -3 -13 -6 -5 -2 6 -9 12 -14 12 -4 0
-7 -6 -5 -12 1 -7 1 -10 -1 -5 -8 13 -54 7 -59 -8 -14 -36 -22 -9 -19 63 4
103 8 115 36 123 21 6 21 7 4 9 -13 1 -8 6 17 14 20 6 40 15 45 20 4 5 4 7 -2
4 -5 -3 -16 1 -24 9 -12 13 -11 14 7 9 12 -4 31 -2 43 4 17 10 23 9 30 -1 7
-11 9 -10 10 4 3 34 4 38 19 48 13 9 12 10 -2 5 -28 -9 -21 2 12 19 17 9 28
20 25 24 -3 5 2 12 11 15 9 4 14 9 11 12 -8 8 23 39 46 47 23 9 40 -8 54 -55
9 -32 8 -38 -6 -41 -10 -3 -6 -5 9 -6 20 -1 22 -3 10 -11 -11 -7 -11 -10 -2
-10 28 0 -1 -20 -31 -21 -26 -1 -28 -3 -8 -6 19 -4 21 -7 10 -14 -12 -7 -12
-9 1 -9 9 0 16 -10 17 -22 1 -12 8 -28 16 -35 12 -13 15 -12 20 9 4 12 17 29
29 37 45 28 170 91 181 91 6 0 18 6 26 14 9 8 65 34 126 59 118 49 123 49 151
-4z m-609 35 c-3 -3 -12 -4 -19 -1 -8 3 -5 6 6 6 11 1 17 -2 13 -5z m-157 -14
c-8 -5 -19 -10 -25 -10 -5 0 -3 5 5 10 8 5 20 10 25 10 6 0 3 -5 -5 -10z m253
-17 c-7 -2 -19 -2 -25 0 -7 3 -2 5 12 5 14 0 19 -2 13 -5z m-426 -35 c-3 -7
-5 -2 -5 12 0 14 2 19 5 13 2 -7 2 -19 0 -25z m20 0 c-3 -7 -5 -2 -5 12 0 14
2 19 5 13 2 -7 2 -19 0 -25z m423 8 c0 -8 -4 -17 -9 -21 -6 -3 -9 4 -8 15 1
23 17 28 17 6z m59 -8 c-1 -19 -2 -19 -6 -5 -3 11 -11 16 -19 13 -8 -3 -14 -1
-14 4 0 6 9 10 20 10 14 0 20 -6 19 -22z m581 12 c-8 -5 -19 -10 -25 -10 -5 0
-3 5 5 10 8 5 20 10 25 10 6 0 3 -5 -5 -10z m-1030 -10 c0 -5 -5 -10 -11 -10
-5 0 -7 5 -4 10 3 6 8 10 11 10 2 0 4 -4 4 -10z m17 -22 c-3 -7 -5 -2 -5 12 0
14 2 19 5 13 2 -7 2 -19 0 -25z m-457 12 c8 -5 11 -10 5 -10 -5 0 -17 5 -25
10 -8 5 -10 10 -5 10 6 0 17 -5 25 -10z m99 -16 c10 -9 -35 -3 -49 6 -11 8 -7
9 15 4 17 -4 32 -8 34 -10z m-70 -10 c2 -2 -20 -4 -50 -3 -38 0 -48 3 -34 9
18 7 73 3 84 -6z m308 -30 c-3 -3 -12 -4 -19 -1 -8 3 -5 6 6 6 11 1 17 -2 13
-5z m33 2 c0 -3 -4 -8 -10 -11 -5 -3 -10 -1 -10 4 0 6 5 11 10 11 6 0 10 -2
10 -4z m-40 -46 c13 -8 13 -10 -2 -10 -9 0 -19 -6 -21 -12 -3 -7 -6 -3 -6 10
-1 24 6 27 29 12z m-134 -96 c18 -14 18 -14 -6 -3 -31 14 -36 19 -24 19 6 0
19 -7 30 -16z m1108 -10 c10 -25 -4 -56 -35 -83 -16 -13 -26 -29 -22 -35 4 -6
-1 -5 -10 2 -9 8 -22 12 -29 9 -8 -3 -6 -6 5 -6 10 -1 16 -5 13 -10 -3 -5 -16
-7 -29 -4 -18 4 -19 3 -7 -6 13 -9 12 -11 -4 -11 -10 0 -25 8 -32 18 -7 9 -14
12 -14 5 0 -6 10 -19 22 -27 18 -13 19 -16 5 -16 -9 0 -17 -6 -17 -12 -1 -7
-10 7 -21 30 -25 54 -34 50 -15 -6 11 -32 12 -42 3 -43 -7 0 -7 -3 2 -6 10 -4
5 -10 -15 -20 -16 -7 -20 -11 -9 -8 16 5 14 0 -9 -19 -21 -19 -36 -24 -55 -20
-15 3 -21 2 -15 -3 9 -6 8 -11 -2 -21 -12 -11 -14 -10 -15 5 -1 10 -1 22 0 26
1 5 -3 6 -9 2 -5 -3 -10 0 -10 7 0 10 -3 9 -10 -2 -5 -9 -5 -17 1 -21 11 -7 1
-39 -13 -39 -5 0 -8 6 -7 13 3 15 -11 47 -20 47 -3 0 -6 -13 -6 -30 0 -16 3
-30 7 -30 4 0 5 -7 2 -15 -4 -8 -18 -15 -33 -16 -23 0 -24 -1 -6 -9 18 -8 17
-9 -7 -9 -21 -1 -26 -5 -21 -18 5 -12 3 -14 -7 -8 -10 6 -12 4 -7 -9 4 -10 2
-16 -6 -15 -25 3 -38 -1 -32 -11 4 -6 -6 -10 -24 -10 -16 0 -38 -3 -48 -7 -16
-6 -17 -5 -3 12 9 11 10 16 3 11 -7 -4 -13 -2 -13 3 0 6 8 11 18 12 9 0 12 3
6 5 -17 7 3 91 30 127 20 28 83 67 106 67 6 0 26 11 43 24 18 13 57 36 87 52
30 16 90 55 134 86 83 61 137 76 150 42z m-1510 -26 c-2 -3 2 -9 8 -11 10 -4
10 -6 0 -6 -7 -1 -15 6 -18 14 -4 8 -10 15 -16 15 -5 0 -6 -4 -3 -10 4 -6 -1
-7 -11 -3 -16 6 -16 7 1 19 13 10 20 10 30 1 7 -7 11 -15 9 -19z m591 12 c-3
-5 -1 -10 4 -10 6 0 11 5 11 12 0 6 2 9 5 6 10 -10 -7 -38 -24 -39 -9 -1 -6
-4 9 -9 23 -7 23 -8 -9 -9 -33 -1 -34 -1 -16 19 10 11 15 20 11 20 -4 0 -4 5
-1 10 3 6 8 10 11 10 3 0 2 -4 -1 -10z m-655 -10 c0 -5 -5 -10 -11 -10 -5 0
-7 5 -4 10 3 6 8 10 11 10 2 0 4 -4 4 -10z m281 -13 c-10 -9 -11 -8 -5 6 3 10
9 15 12 12 3 -3 0 -11 -7 -18z m146 16 c-4 -3 -3 -11 2 -17 5 -6 2 -24 -6 -41
-10 -21 -13 -23 -9 -7 2 12 0 22 -5 22 -5 0 -9 -9 -9 -20 0 -11 -4 -20 -9 -20
-17 0 2 43 21 48 14 3 16 7 8 12 -12 7 -6 30 7 30 4 0 3 -3 0 -7z m-187 -17
c0 -3 -4 -8 -10 -11 -5 -3 -10 -1 -10 4 0 6 5 11 10 11 6 0 10 -2 10 -4z m11
-23 c-12 -20 -14 -14 -5 12 4 9 9 14 11 11 3 -2 0 -13 -6 -23z m-138 -3 c-3
-11 -9 -20 -15 -20 -5 0 -4 9 2 20 6 11 12 20 14 20 2 0 2 -9 -1 -20z m488 6
c5 3 9 0 9 -5 0 -6 15 -11 34 -11 27 0 34 -4 31 -17 -2 -10 -4 -28 -4 -40 -1
-19 -7 -23 -33 -24 -31 -1 -32 -1 -8 -9 25 -8 25 -8 -5 -10 -26 -1 -27 -3 -10
-10 19 -8 19 -9 -3 -9 -13 -1 -44 4 -70 11 -37 9 -42 13 -26 19 16 7 17 8 2 8
-22 1 -22 8 -2 41 8 14 13 17 10 8 -3 -12 0 -18 10 -18 9 0 12 5 8 11 -4 8 4
9 27 5 24 -4 28 -3 14 3 -17 7 -13 10 20 14 23 2 17 3 -15 2 -40 -2 -49 -1
-32 6 12 4 22 16 23 26 0 11 3 13 6 5 2 -6 9 -10 14 -6z m-523 -31 c-3 -3 -9
2 -12 12 -6 14 -5 15 5 6 7 -7 10 -15 7 -18z m1089 -1 c-3 -3 -12 -4 -19 -1
-8 3 -5 6 6 6 11 1 17 -2 13 -5z m14 -21 c-12 -20 -14 -14 -5 12 4 9 9 14 11
11 3 -2 0 -13 -6 -23z m-1096 -4 c11 -16 1 -19 -13 -3 -7 8 -8 14 -3 14 5 0
13 -5 16 -11z m1027 -11 c-5 -19 -7 -20 -10 -5 -2 9 -8 15 -13 12 -5 -4 -9 -1
-9 4 0 6 9 11 19 11 15 0 18 -5 13 -22z m-775 -10 c-3 -8 -6 -5 -6 6 -1 11 2
17 5 13 3 -3 4 -12 1 -19z m-347 -18 c8 -5 11 -10 5 -10 -5 0 -17 5 -25 10 -8
5 -10 10 -5 10 6 0 17 -5 25 -10z m454 -47 c-6 -21 -4 -25 8 -21 9 4 15 0 15
-8 0 -16 -6 -17 -25 -6 -13 9 -13 62 0 62 5 0 5 -12 2 -27z m-591 10 c-7 -2
-19 -2 -25 0 -7 3 -2 5 12 5 14 0 19 -2 13 -5z m622 -3 c3 -5 1 -10 -4 -10 -6
0 -11 5 -11 10 0 6 2 10 4 10 3 0 8 -4 11 -10z m-58 -22 c-3 -8 -6 -5 -6 6 -1
11 2 17 5 13 3 -3 4 -12 1 -19z m-627 2 c0 -5 -4 -10 -10 -10 -5 0 -10 5 -10
10 0 6 5 10 10 10 6 0 10 -4 10 -10z m37 -22 c-3 -7 -5 -2 -5 12 0 14 2 19 5
13 2 -7 2 -19 0 -25z m70 -10 c-3 -7 -5 -2 -5 12 0 14 2 19 5 13 2 -7 2 -19 0
-25z m360 0 c-3 -7 -5 -2 -5 12 0 14 2 19 5 13 2 -7 2 -19 0 -25z m70 -10 c-3
-7 -5 -2 -5 12 0 14 2 19 5 13 2 -7 2 -19 0 -25z m-24 5 c-7 -2 -19 -2 -25 0
-7 3 -2 5 12 5 14 0 19 -2 13 -5z m-612 -30 c-11 -5 -11 -7 0 -14 10 -6 7 -8
-9 -6 -34 2 -22 25 13 25 6 0 4 -2 -4 -5z m46 -25 c-3 -7 -5 -2 -5 12 0 14 2
19 5 13 2 -7 2 -19 0 -25z m70 0 c-3 -7 -5 -2 -5 12 0 14 2 19 5 13 2 -7 2
-19 0 -25z m430 -10 c-3 -7 -5 -2 -5 12 0 14 2 19 5 13 2 -7 2 -19 0 -25z
m-520 -10 c-3 -7 -5 -2 -5 12 0 14 2 19 5 13 2 -7 2 -19 0 -25z m48 22 c3 -5
1 -10 -4 -10 -6 0 -11 5 -11 10 0 6 2 10 4 10 3 0 8 -4 11 -10z m452 -32 c-3
-7 -5 -2 -5 12 0 14 2 19 5 13 2 -7 2 -19 0 -25z m-534 -31 c-10 -12 -25 -21
-34 -19 -18 3 -34 42 -18 42 5 0 9 -7 9 -15 0 -33 49 -3 51 32 1 17 2 17 6 1
2 -10 -4 -28 -14 -41z m1267 -112 c0 -5 -5 -3 -10 5 -5 8 -10 20 -10 25 0 6 5
3 10 -5 5 -8 10 -19 10 -25z m80 25 c0 -5 -8 -10 -17 -10 -15 0 -16 2 -3 10
19 12 20 12 20 0z m-1497 -69 c-16 -16 -30 -27 -32 -25 -3 2 5 13 17 24 12 12
22 25 22 31 0 6 5 7 10 4 6 -4 -2 -18 -17 -34z m461 13 c3 -8 2 -12 -4 -9 -6
3 -10 10 -10 16 0 14 7 11 14 -7z m51 6 c-3 -5 -12 -10 -18 -10 -7 0 -6 4 3
10 19 12 23 12 15 0z m-453 -40 c-12 -12 -22 -18 -22 -14 0 10 34 42 39 38 3
-2 -5 -13 -17 -24z m-63 -21 c-22 -13 -31 -11 -17 5 7 8 17 12 22 9 4 -3 2 -9
-5 -14z m57 -15 c-11 -8 -25 -14 -30 -13 -6 0 -1 5 12 11 12 6 22 16 22 21 0
6 3 7 7 3 5 -4 -1 -14 -11 -22z m-246 -4 c0 -5 -4 -10 -10 -10 -5 0 -10 5 -10
10 0 6 5 10 10 10 6 0 10 -4 10 -10z m1440 0 c0 -5 -8 -10 -17 -10 -15 0 -16
2 -3 10 19 12 20 12 20 0z m-40 -10 c0 -5 -7 -10 -16 -10 -8 0 -12 5 -9 10 3
6 10 10 16 10 5 0 9 -4 9 -10z m-1400 -21 l-35 -6 35 -3 35 -3 -40 -7 c-31 -6
-34 -7 -12 -9 42 -2 32 -18 -12 -18 -36 0 -37 1 -27 21 21 40 25 43 58 37 l33
-5 -35 -7z m199 0 c-22 -13 -31 -11 -17 5 7 8 17 12 22 9 4 -3 2 -9 -5 -14z
m98 -31 c-3 -7 -5 -2 -5 12 0 14 2 19 5 13 2 -7 2 -19 0 -25z m86 25 c-7 -2
-19 -2 -25 0 -7 3 -2 5 12 5 14 0 19 -2 13 -5z m-224 -24 c-22 -13 -31 -11
-17 5 7 8 17 12 22 9 4 -3 2 -9 -5 -14z m175 -3 c-10 -8 -21 -12 -24 -10 -5 6
21 24 34 24 6 0 1 -6 -10 -14z m53 -18 c-3 -7 -5 -2 -5 12 0 14 2 19 5 13 2
-7 2 -19 0 -25z m-152 2 c3 -5 1 -10 -4 -10 -6 0 -11 5 -11 10 0 6 2 10 4 10
3 0 8 -4 11 -10z m132 -22 c-3 -7 -5 -2 -5 12 0 14 2 19 5 13 2 -7 2 -19 0
-25z m-430 6 c-3 -3 -12 -4 -19 -1 -8 3 -5 6 6 6 11 1 17 -2 13 -5z m3 -18 c0
-2 -9 -6 -20 -9 -11 -3 -20 -1 -20 4 0 5 9 9 20 9 11 0 20 -2 20 -4z m220 -26
c8 -5 11 -10 5 -10 -5 0 -17 5 -25 10 -8 5 -10 10 -5 10 6 0 17 -5 25 -10z
m154 3 c-5 -5 -12 -12 -16 -18 -4 -6 -8 -2 -8 8 0 9 7 17 17 17 9 0 12 -3 7
-7z m-44 -23 c8 -5 11 -10 5 -10 -5 0 -17 5 -25 10 -8 5 -10 10 -5 10 6 0 17
-5 25 -10z m47 -22 c-3 -7 -5 -2 -5 12 0 14 2 19 5 13 2 -7 2 -19 0 -25z m44
-12 c-5 -29 -5 -30 -9 -6 -2 14 -9 28 -15 32 -7 4 -3 6 9 6 17 -2 19 -7 15
-32z m-134 2 c-3 -8 -6 -5 -6 6 -1 11 2 17 5 13 3 -3 4 -12 1 -19z m213 -45
c-11 -17 -11 -17 -6 0 3 10 7 26 7 35 1 15 2 15 6 0 2 -10 -1 -25 -7 -35z
m571 20 c-12 -20 -14 -14 -5 12 4 9 9 14 11 11 3 -2 0 -13 -6 -23z m-1178 11
c-7 -3 -9 -13 -6 -22 6 -14 5 -15 -9 -2 -19 17 -14 30 10 29 10 0 12 -3 5 -5z
m792 -22 c-6 -7 -34 11 -29 19 3 5 11 3 19 -4 7 -6 12 -13 10 -15z m-408 -4
c-3 -8 -6 -5 -6 6 -1 11 2 17 5 13 3 -3 4 -12 1 -19z m20 -10 c-3 -8 -6 -5 -6
6 -1 11 2 17 5 13 3 -3 4 -12 1 -19z m107 -10 c6 -4 1 -6 -10 -6 -16 2 -20 7
-16 22 4 15 7 17 10 6 3 -8 10 -18 16 -22z m381 11 c11 -16 1 -19 -13 -3 -7 8
-8 14 -3 14 5 0 13 -5 16 -11z m45 -24 c0 -5 -5 -3 -10 5 -5 8 -10 20 -10 25
0 6 5 3 10 -5 5 -8 10 -19 10 -25z m-75 -24 c-6 -5 -25 10 -25 20 0 5 6 4 14
-3 8 -7 12 -15 11 -17z m-883 -45 c-3 -6 -10 0 -15 12 -12 27 -40 36 -67 22
-12 -7 -24 -9 -27 -6 -3 3 9 12 27 20 32 13 35 12 61 -13 15 -14 24 -30 21
-35z m31 10 c-3 -4 -9 -2 -14 5 -13 22 -11 31 5 17 8 -7 12 -17 9 -22z m37
-11 c0 -5 -5 -3 -10 5 -5 8 -10 20 -10 25 0 6 5 3 10 -5 5 -8 10 -19 10 -25z
m411 12 c-10 -9 -11 -8 -5 6 3 10 9 15 12 12 3 -3 0 -11 -7 -18z m-431 -60 c0
-4 -6 -2 -14 5 -8 7 -12 17 -9 22 5 8 23 -12 23 -27z m117 -69 c-3 -8 -6 -5
-6 6 -1 11 2 17 5 13 3 -3 4 -12 1 -19z m-227 -13 c0 -2 -9 -9 -20 -15 -12 -6
-20 -7 -20 -1 0 5 8 12 18 14 9 3 18 5 20 6 1 0 2 -1 2 -4z m10 -35 c8 -5 12
-10 9 -10 -4 0 -22 -6 -41 -14 -31 -14 -34 -13 -35 4 -2 25 40 38 67 20z m0
-80 c-8 -5 -19 -10 -25 -10 -5 0 -3 5 5 10 8 5 20 10 25 10 6 0 3 -5 -5 -10z
m-20 -30 c-8 -5 -19 -10 -25 -10 -5 0 -3 5 5 10 8 5 20 10 25 10 6 0 3 -5 -5
-10z m-40 -40 c-8 -5 -19 -10 -25 -10 -5 0 -3 5 5 10 8 5 20 10 25 10 6 0 3
-5 -5 -10z"/>
<path d="M2558 2233 c7 -3 16 -2 19 1 4 3 -2 6 -13 5 -11 0 -14 -3 -6 -6z"/>
<path d="M2320 2120 c8 -5 20 -10 25 -10 6 0 3 5 -5 10 -8 5 -19 10 -25 10 -5
0 -3 -5 5 -10z"/>
<path d="M2183 2063 c9 -2 23 -2 30 0 6 3 -1 5 -18 5 -16 0 -22 -2 -12 -5z"/>
<path d="M2650 2075 c7 -8 17 -15 22 -15 6 0 5 7 -2 15 -7 8 -17 15 -22 15 -6
0 -5 -7 2 -15z"/>
<path d="M2730 2060 c-8 -5 -10 -10 -5 -10 6 0 17 5 25 10 8 5 11 10 5 10 -5
0 -17 -5 -25 -10z"/>
<path d="M2390 1947 c0 -23 22 -57 37 -56 11 0 13 3 6 6 -7 2 -13 10 -13 18 0
7 -7 18 -15 25 -8 7 -15 10 -15 7z"/>
<path d="M2458 1883 c7 -3 16 -2 19 1 4 3 -2 6 -13 5 -11 0 -14 -3 -6 -6z"/>
<path d="M2198 1743 c7 -3 16 -2 19 1 4 3 -2 6 -13 5 -11 0 -14 -3 -6 -6z"/>
<path d="M1800 1680 c-8 -5 -10 -10 -5 -10 6 0 17 5 25 10 8 5 11 10 5 10 -5
0 -17 -5 -25 -10z"/>
<path d="M1915 1660 c-3 -6 1 -7 9 -4 18 7 21 14 7 14 -6 0 -13 -4 -16 -10z"/>
<path d="M1558 1593 c7 -3 16 -2 19 1 4 3 -2 6 -13 5 -11 0 -14 -3 -6 -6z"/>
<path d="M1321 1496 c2 -2 22 -6 44 -9 28 -5 34 -4 20 3 -19 8 -73 14 -64 6z"/>
<path d="M1368 1463 c7 -3 16 -2 19 1 4 3 -2 6 -13 5 -11 0 -14 -3 -6 -6z"/>
<path d="M1348 1443 c6 -2 18 -2 25 0 6 3 1 5 -13 5 -14 0 -19 -2 -12 -5z"/>
<path d="M1440 1396 c0 -2 7 -7 16 -10 8 -3 12 -2 9 4 -6 10 -25 14 -25 6z"/>
<path d="M1430 1376 c0 -2 7 -7 16 -10 8 -3 12 -2 9 4 -6 10 -25 14 -25 6z"/>
<path d="M1218 1363 c7 -3 16 -2 19 1 4 3 -2 6 -13 5 -11 0 -14 -3 -6 -6z"/>
<path d="M1465 1351 c-6 -11 13 -26 22 -17 4 3 1 6 -6 6 -7 0 -9 5 -6 10 3 6
4 10 1 10 -3 0 -7 -4 -11 -9z"/>
<path d="M1850 1340 c-8 -5 -10 -10 -5 -10 6 0 17 5 25 10 8 5 11 10 5 10 -5
0 -17 -5 -25 -10z"/>
<path d="M1450 1321 l35 -19 -50 0 c-180 1 -233 -3 -238 -14 -3 -10 25 -12
127 -10 142 2 256 19 221 32 -11 4 -24 4 -29 -1 -5 -4 -26 1 -47 12 -49 24
-66 24 -19 0z"/>
<path d="M1148 1313 c7 -3 16 -2 19 1 4 3 -2 6 -13 5 -11 0 -14 -3 -6 -6z"/>
<path d="M1770 1270 c-11 -8 -7 -9 15 -4 37 8 45 14 19 14 -10 0 -26 -5 -34
-10z"/>
<path d="M1780 1250 c-11 -8 -7 -9 15 -4 37 8 45 14 19 14 -10 0 -26 -5 -34
-10z"/>
<path d="M910 1210 c-20 -6 -21 -8 -5 -8 11 0 29 3 40 8 25 11 -1 11 -35 0z"/>
<path d="M980 1210 c-9 -6 -10 -10 -3 -10 6 0 15 5 18 10 8 12 4 12 -15 0z"/>
<path d="M920 1190 c-21 -7 -21 -8 -5 -9 11 0 27 4 35 9 18 11 5 11 -30 0z"/>
<path d="M858 1173 c7 -3 16 -2 19 1 4 3 -2 6 -13 5 -11 0 -14 -3 -6 -6z"/>
<path d="M935 1170 c-13 -6 -15 -9 -5 -9 8 0 22 4 30 9 18 12 2 12 -25 0z"/>
<path d="M888 1133 c6 -2 18 -2 25 0 6 3 1 5 -13 5 -14 0 -19 -2 -12 -5z"/>
<path d="M898 1113 c6 -2 18 -2 25 0 6 3 1 5 -13 5 -14 0 -19 -2 -12 -5z"/>
<path d="M1000 1105 c-14 -8 -20 -14 -15 -14 6 0 21 6 35 14 14 8 21 14 15 14
-5 0 -21 -6 -35 -14z"/>
<path d="M858 1083 c6 -2 18 -2 25 0 6 3 1 5 -13 5 -14 0 -19 -2 -12 -5z"/>
<path d="M935 1080 c-13 -6 -15 -9 -5 -9 8 0 22 4 30 9 18 12 2 12 -25 0z"/>
<path d="M878 1063 c6 -2 18 -2 25 0 6 3 1 5 -13 5 -14 0 -19 -2 -12 -5z"/>
<path d="M1110 1060 c-9 -6 -10 -10 -3 -10 6 0 15 5 18 10 8 12 4 12 -15 0z"/>
<path d="M980 1050 c-8 -5 -10 -10 -5 -10 6 0 17 5 25 10 8 5 11 10 5 10 -5 0
-17 -5 -25 -10z"/>
<path d="M1020 1045 c-14 -8 -20 -14 -15 -14 6 0 21 6 35 14 14 8 21 14 15 14
-5 0 -21 -6 -35 -14z"/>
<path d="M2528 1713 c7 -3 16 -2 19 1 4 3 -2 6 -13 5 -11 0 -14 -3 -6 -6z"/>
<path d="M2356 1553 c-6 -14 -5 -15 5 -6 7 7 10 15 7 18 -3 3 -9 -2 -12 -12z"/>
<path d="M85 710 c-13 -6 -15 -9 -5 -9 8 0 22 4 30 9 18 12 2 12 -25 0z"/>
<path d="M2576 2533 c14 -55 17 -59 49 -52 l30 7 -29 1 c-16 0 -27 4 -23 7 6
7 -19 64 -28 64 -3 0 -2 -12 1 -27z"/>
<path d="M1450 2520 c8 -5 20 -10 25 -10 6 0 3 5 -5 10 -8 5 -19 10 -25 10 -5
0 -3 -5 5 -10z"/>
<path d="M1507 2519 c7 -7 15 -10 18 -7 3 3 -2 9 -12 12 -14 6 -15 5 -6 -5z"/>
<path d="M1550 2500 c8 -5 24 -10 34 -10 26 0 18 6 -19 14 -22 5 -26 4 -15 -4z"/>
<path d="M2360 2440 c8 -5 20 -10 25 -10 6 0 3 5 -5 10 -8 5 -19 10 -25 10 -5
0 -3 -5 5 -10z"/>
<path d="M2168 2313 c6 -2 18 -2 25 0 6 3 1 5 -13 5 -14 0 -19 -2 -12 -5z"/>
<path d="M1946 2151 c-3 -4 6 -6 19 -3 14 2 25 6 25 8 0 8 -39 4 -44 -5z"/>
<path d="M1850 2130 c-9 -6 -10 -10 -3 -10 6 0 15 5 18 10 8 12 4 12 -15 0z"/>
<path d="M1905 2130 c-3 -6 1 -7 9 -4 18 7 21 14 7 14 -6 0 -13 -4 -16 -10z"/>
<path d="M1840 2105 c-19 -7 -28 -14 -20 -14 8 0 29 6 45 14 39 17 21 18 -25
0z"/>
<path d="M1338 2033 c6 -2 18 -2 25 0 6 3 1 5 -13 5 -14 0 -19 -2 -12 -5z"/>
<path d="M1280 1906 c0 -2 15 -6 34 -8 19 -2 32 0 30 4 -5 8 -64 12 -64 4z"/>
<path d="M1054 1874 c-19 -15 -19 -15 1 -6 11 5 27 12 35 15 13 5 13 6 -1 6
-8 1 -24 -6 -35 -15z"/>
<path d="M1091 1869 c-18 -6 -31 -12 -29 -14 5 -5 78 14 78 20 0 6 -8 5 -49
-6z"/>
<path d="M1132 1856 c-57 -14 -87 -31 -37 -22 17 3 25 4 18 0 -9 -4 -9 -11 -1
-30 12 -25 29 -28 83 -13 24 6 19 7 -20 4 l-50 -4 40 15 40 14 -35 -5 c-36 -6
-32 8 5 19 11 3 5 4 -12 2 -18 -1 -33 1 -33 6 0 4 11 8 24 8 14 0 28 5 31 10
3 6 5 10 3 9 -2 0 -27 -6 -56 -13z"/>
<path d="M1258 1863 c7 -3 16 -2 19 1 4 3 -2 6 -13 5 -11 0 -14 -3 -6 -6z"/>
<path d="M1000 1830 l-34 -18 42 3 c23 1 46 6 50 10 4 4 -4 4 -18 1 -24 -7
-24 -6 -6 8 25 21 10 19 -34 -4z"/>
<path d="M935 1800 c-3 -6 1 -7 9 -4 18 7 21 14 7 14 -6 0 -13 -4 -16 -10z"/>
<path d="M975 1795 c-25 -12 -26 -14 -5 -9 14 4 29 10 35 15 12 12 5 11 -30
-6z"/>
<path d="M945 1739 c-27 -10 -37 -17 -21 -14 31 7 97 33 81 33 -5 0 -32 -8
-60 -19z"/>
<path d="M843 1713 c9 -2 25 -2 35 0 9 3 1 5 -18 5 -19 0 -27 -2 -17 -5z"/>
<path d="M875 1700 c-27 -7 -27 -8 -5 -8 14 0 36 4 50 8 20 6 21 8 5 8 -11 0
-33 -4 -50 -8z"/>
<path d="M290 1679 c-1 -17 27 -79 63 -138 22 -36 40 -72 40 -78 0 -7 7 -13
16 -13 14 0 14 -2 1 -10 -13 -8 -12 -10 3 -10 21 0 22 22 2 60 -9 17 -12 30
-9 30 4 0 -2 8 -12 18 -24 22 -66 78 -87 117 -9 17 -16 27 -17 24z"/>
<path d="M815 1650 l-50 -7 47 -1 c26 -1 50 3 53 8 3 6 5 9 3 8 -2 0 -25 -4
-53 -8z"/>
<path d="M580 1630 c8 -5 20 -10 25 -10 6 0 3 5 -5 10 -8 5 -19 10 -25 10 -5
0 -3 -5 5 -10z"/>
<path d="M688 1633 c6 -2 18 -2 25 0 6 3 1 5 -13 5 -14 0 -19 -2 -12 -5z"/>
<path d="M650 1600 c8 -5 22 -9 30 -9 10 0 8 3 -5 9 -27 12 -43 12 -25 0z"/>
<path d="M738 1603 c7 -3 16 -2 19 1 4 3 -2 6 -13 5 -11 0 -14 -3 -6 -6z"/>
<path d="M297 1584 c-3 -5 3 -25 14 -44 13 -26 18 -30 18 -15 0 25 -24 71 -32
59z"/>
<path d="M540 1580 c8 -5 20 -10 25 -10 6 0 3 5 -5 10 -8 5 -19 10 -25 10 -5
0 -3 -5 5 -10z"/>
<path d="M718 1583 c7 -3 16 -2 19 1 4 3 -2 6 -13 5 -11 0 -14 -3 -6 -6z"/>
<path d="M428 1563 c7 -3 16 -2 19 1 4 3 -2 6 -13 5 -11 0 -14 -3 -6 -6z"/>
<path d="M468 1513 c7 -3 16 -2 19 1 4 3 -2 6 -13 5 -11 0 -14 -3 -6 -6z"/>
<path d="M478 1308 c5 -5 16 -8 23 -6 8 3 3 7 -10 11 -17 4 -21 3 -13 -5z"/>
<path d="M308 1273 c6 -2 18 -2 25 0 6 3 1 5 -13 5 -14 0 -19 -2 -12 -5z"/>
</g>
</svg>
