<?xml version="1.0" standalone="no"?>
<!DOCTYPE svg PUBLIC "-//W3C//DTD SVG 20010904//EN"
 "http://www.w3.org/TR/2001/REC-SVG-20010904/DTD/svg10.dtd">
<svg version="1.0" xmlns="http://www.w3.org/2000/svg"
 width="304.000000pt" height="333.000000pt" viewBox="0 0 304.000000 333.000000"
 preserveAspectRatio="xMidYMid meet">

<g transform="translate(0.000000,333.000000) scale(0.100000,-0.100000)"
fill="#000000" stroke="none">
<path d="M1470 2981 c-100 -27 -328 -144 -399 -203 -18 -16 -38 -28 -44 -28
-7 0 -40 -22 -73 -48 -61 -47 -139 -148 -167 -214 -8 -18 -32 -63 -55 -100
-61 -100 -92 -165 -108 -227 -8 -31 -30 -81 -49 -113 -19 -31 -35 -59 -35 -63
0 -14 -75 -131 -104 -163 -17 -19 -59 -54 -93 -78 -35 -25 -63 -49 -63 -53 0
-4 -38 -29 -85 -56 -47 -26 -85 -51 -85 -56 0 -14 9 -11 55 21 24 17 46 30 49
30 3 0 51 33 108 74 l103 75 13 -44 c8 -30 30 -63 70 -103 31 -32 65 -69 75
-83 17 -24 17 -24 2 8 -8 17 -36 51 -61 75 -25 24 -52 54 -59 68 -22 42 -28
89 -14 106 10 13 16 3 35 -58 22 -68 29 -78 103 -145 44 -40 81 -73 84 -73 2
0 4 7 4 15 0 8 -3 12 -7 10 -4 -2 -17 6 -30 19 l-22 24 21 5 c20 4 20 5 -1 4
-28 -2 -50 11 -43 24 3 5 0 6 -7 4 -24 -9 -67 48 -91 123 l-24 72 39 70 c21
39 40 70 42 70 1 0 2 -22 2 -48 -1 -42 4 -55 37 -95 21 -26 45 -47 53 -47 8 0
17 -7 20 -15 4 -8 15 -15 25 -15 10 0 19 -4 19 -10 0 -5 7 -10 16 -10 12 0 15
-7 12 -23 -3 -15 0 -24 8 -24 7 0 11 5 7 11 -3 6 6 -2 21 -18 34 -38 33 -46
-6 -46 -17 0 -28 -3 -25 -7 4 -3 -1 -12 -11 -20 -16 -14 -16 -14 1 -9 9 3 17
1 17 -4 0 -6 -13 -10 -30 -10 -16 0 -30 5 -30 10 0 6 -4 10 -8 10 -5 0 -9 -7
-9 -16 0 -13 11 -15 59 -12 32 2 58 0 58 -4 0 -5 -21 -8 -47 -8 -32 0 -43 -3
-34 -9 8 -5 19 -8 25 -6 37 11 76 14 71 5 -3 -6 4 -10 17 -11 22 0 22 -1 3 -8
-11 -5 -21 -4 -23 0 -2 5 -18 8 -35 8 l-32 -1 30 -8 c17 -4 22 -8 12 -9 -11
-1 -15 -6 -11 -12 3 -6 0 -15 -7 -20 -9 -6 -10 -9 -2 -9 7 0 17 8 22 18 6 9
11 11 11 5 0 -7 8 -13 18 -13 14 0 15 -2 2 -10 -11 -7 -11 -10 -2 -10 7 0 10
-4 7 -10 -3 -5 2 -10 12 -10 34 -1 -9 -17 -65 -25 -47 -6 -57 -4 -100 23 -26
17 -63 47 -81 66 -19 20 -39 36 -45 36 -16 0 55 -70 101 -100 23 -15 39 -31
35 -35 -4 -5 -2 -5 5 -1 6 3 14 2 18 -4 3 -5 0 -10 -7 -11 -7 0 -4 -4 7 -9 16
-7 12 -9 -20 -11 -31 -2 -34 -3 -12 -6 29 -5 32 -10 16 -33 -9 -13 -10 -12 -5
3 4 14 -1 17 -32 17 -20 0 -63 11 -94 24 -62 25 -75 26 -31 2 37 -20 11 -20
-30 -1 -29 14 -30 14 -13 0 11 -8 25 -15 30 -15 6 0 5 -4 -2 -9 -10 -6 -5 -11
17 -21 17 -7 31 -19 31 -26 0 -15 15 -19 23 -6 2 4 2 2 1 -5 -2 -6 0 -14 4
-16 8 -5 -4 -2 -38 7 -19 6 -21 5 -10 -3 13 -10 13 -11 0 -11 -13 0 -13 -1 0
-10 8 -5 20 -10 25 -10 6 0 3 5 -5 10 -23 15 7 12 50 -6 l35 -14 -35 5 c-32 5
-33 5 -14 -7 20 -12 20 -14 6 -28 -14 -13 -15 -12 -9 3 4 11 1 17 -9 17 -8 0
-12 -4 -9 -10 3 -5 0 -10 -7 -10 -9 0 -9 -3 2 -10 13 -9 13 -10 0 -10 -12 0
-13 -2 -1 -9 7 -5 11 -13 7 -19 -3 -6 0 -13 6 -15 9 -4 8 -6 -2 -7 -10 0 -8
-4 6 -13 20 -11 20 -13 6 -27 -14 -13 -15 -12 -9 3 4 11 1 17 -9 17 -9 0 -12
-5 -8 -11 4 -8 -1 -9 -17 -5 -24 7 -24 7 1 -8 18 -11 20 -15 8 -16 -21 0 -50
-28 -43 -41 4 -5 -1 -6 -9 -3 -9 4 -16 1 -16 -6 0 -7 -7 -10 -16 -6 -8 3 -12
2 -9 -4 3 -6 1 -10 -5 -10 -6 0 -9 -4 -5 -9 3 -5 -4 -12 -14 -16 -12 -3 -18
-12 -15 -20 4 -10 0 -12 -17 -8 -15 4 -20 3 -15 -5 4 -7 2 -12 -4 -12 -6 0 -8
-4 -5 -10 3 -5 -1 -10 -10 -10 -9 0 -13 -5 -10 -10 3 -6 -1 -10 -10 -10 -10 0
-13 -5 -9 -12 5 -8 0 -7 -11 2 -11 9 -16 10 -11 3 4 -8 2 -13 -4 -13 -6 0 -8
-4 -5 -10 4 -6 -9 -10 -32 -11 -34 -1 -35 -2 -13 -9 25 -8 24 -8 -5 -9 -20 -1
-26 -4 -17 -9 17 -11 5 -42 -17 -43 -12 0 -12 -2 4 -9 17 -7 16 -9 -10 -9 -23
-1 -27 -4 -15 -11 9 -6 11 -10 3 -10 -7 0 -10 -7 -7 -15 5 -11 -1 -15 -22 -16
-25 0 -26 -1 -9 -9 13 -6 15 -9 5 -9 -12 -1 -12 -3 -2 -10 11 -7 11 -9 -1 -14
-11 -4 -14 -18 -10 -55 3 -31 -2 -68 -12 -98 -18 -52 -12 -64 35 -64 22 0 18
-6 -40 -65 -41 -41 -58 -65 -48 -65 9 0 19 4 22 9 6 10 80 59 303 204 73 47
151 103 175 124 95 86 215 156 315 182 24 7 72 25 108 41 36 16 114 45 173 64
215 69 364 139 427 200 82 81 217 175 286 201 76 30 108 61 134 134 14 40 13
45 -10 104 -14 33 -35 72 -48 85 l-22 23 52 45 c78 68 95 100 88 171 -9 81
-29 118 -73 137 -20 8 -30 15 -21 15 8 1 41 25 73 55 l59 54 -8 69 c-8 75 -20
106 -60 145 l-26 26 20 41 c28 54 27 65 -14 110 -19 21 -35 47 -35 57 0 10
-14 41 -31 70 -30 49 -94 94 -133 94 -7 0 -56 45 -109 100 l-96 100 -53 -1
c-29 0 -82 -9 -118 -18z m162 -4 c35 -16 168 -163 192 -213 10 -21 23 -47 27
-56 5 -10 9 -27 9 -37 0 -25 36 -88 55 -95 8 -3 37 -8 64 -12 51 -7 89 -33 76
-53 -3 -6 -14 -11 -23 -11 -15 0 -15 -2 -2 -10 12 -8 9 -10 -11 -10 -15 0 -42
-2 -60 -5 -28 -4 -30 -3 -14 5 16 8 13 10 -17 7 -21 -2 -38 1 -38 6 0 5 -12 6
-27 3 l-28 -6 25 15 25 16 -24 -7 c-16 -4 -21 -3 -17 5 4 6 2 11 -5 11 -7 0
-4 7 7 15 18 14 18 15 -7 6 -19 -7 -26 -6 -26 4 0 7 7 11 16 8 14 -4 14 -3 0
6 -12 8 -26 7 -50 -3 -29 -12 -36 -12 -47 0 -7 8 -9 14 -4 14 4 0 17 7 28 15
18 13 18 14 -6 9 -21 -5 -22 -4 -10 6 13 10 12 11 -3 6 -10 -3 -25 -6 -33 -6
-8 0 -14 -7 -14 -15 0 -9 -9 -15 -24 -15 -14 0 -31 -7 -40 -15 -19 -20 -27
-19 -19 2 4 11 3 14 -5 9 -7 -4 -12 -3 -12 2 0 5 18 10 41 10 72 1 55 12 -22
14 l-74 2 70 6 70 6 -72 2 c-77 2 -93 11 -67 36 14 15 14 16 -3 17 -10 0 -13
3 -5 6 6 2 10 9 6 14 -3 5 2 24 11 42 24 46 35 87 24 87 -5 0 -14 -11 -19 -24
-5 -13 -14 -27 -20 -31 -5 -3 -8 -10 -5 -15 3 -5 0 -14 -7 -22 -7 -7 -15 -24
-16 -38 -5 -31 -20 -50 -39 -50 -11 0 -14 7 -11 25 3 14 2 25 -3 25 -4 0 -6
11 -4 25 2 20 -1 23 -11 14 -7 -5 -11 -19 -9 -30 2 -10 -2 -19 -8 -19 -7 0 -6
-4 3 -10 13 -9 13 -12 -1 -23 -9 -6 -14 -17 -12 -24 2 -6 -1 -15 -8 -19 -8 -5
-9 -3 -4 6 5 9 4 11 -3 6 -18 -11 -14 -24 9 -31 11 -4 18 -9 16 -11 -8 -8 -57
18 -51 27 3 5 -3 6 -12 2 -16 -6 -15 -7 2 -20 13 -10 14 -13 3 -13 -12 0 -12
-2 1 -11 12 -9 12 -10 -3 -5 -10 3 -25 6 -33 6 -8 0 -14 4 -14 10 0 5 8 7 18
4 9 -3 6 2 -8 10 -23 14 -23 15 -5 16 l20 1 -20 9 c-11 5 -27 9 -35 9 -13 1
-13 0 0 -9 13 -9 13 -10 0 -10 -12 0 -13 -2 -1 -9 7 -5 11 -13 7 -19 -3 -6 0
-13 6 -16 7 -3 -3 -4 -22 -2 -19 2 -27 1 -17 -1 9 -2 17 -13 17 -24 0 -17 -5
-19 -42 -14 -32 4 -38 3 -23 -4 17 -8 15 -10 -15 -12 l-35 -2 33 -4 c25 -3 32
-9 31 -26 0 -21 -1 -21 -9 -2 -7 17 -9 16 -10 -10 -2 -18 -4 -23 -7 -12 -5 19
-28 23 -38 7 -4 -6 -3 -10 2 -9 20 3 27 -2 13 -11 -11 -7 -11 -10 -2 -10 7 0
10 -4 7 -10 -3 -5 2 -10 12 -11 16 0 16 -1 -2 -9 -17 -7 -17 -9 -2 -9 23 -1
22 -21 -2 -21 -22 0 -36 -26 -18 -34 7 -2 -13 -5 -43 -6 l-55 -2 51 -8 c28 -4
61 -13 75 -20 13 -8 25 -13 27 -12 1 1 10 2 20 1 11 -1 9 -4 -8 -9 l-25 -8 28
-1 c15 -1 27 4 27 11 0 6 2 9 5 6 11 -10 -8 -39 -22 -34 -8 3 -11 1 -8 -4 3
-5 1 -18 -4 -27 -10 -17 -10 -17 -11 0 0 14 -8 17 -47 15 -38 -1 -41 -2 -15
-5 29 -4 32 -6 20 -20 -12 -15 -11 -15 11 -4 15 8 21 9 17 2 -4 -6 -1 -11 6
-12 7 -1 2 -5 -12 -9 -22 -7 -21 -8 13 -9 20 -1 37 -6 37 -12 0 -5 -6 -7 -12
-3 -9 5 -10 4 -3 -4 6 -5 19 -12 29 -14 11 -1 20 -11 22 -21 2 -16 -3 -18 -34
-14 -20 3 -29 3 -19 1 10 -3 17 -14 16 -27 -1 -17 -2 -18 -6 -4 -3 10 -14 17
-29 17 -14 0 -23 4 -20 9 3 5 -1 11 -9 14 -9 4 -12 1 -8 -9 4 -10 -3 -14 -23
-15 l-29 -2 30 -5 c26 -4 28 -5 10 -12 -18 -8 -18 -9 5 -11 18 -1 14 -4 -15
-9 l-40 -7 38 -2 c32 -1 37 -4 36 -23 0 -22 -1 -22 -9 -3 -7 16 -9 17 -9 3 -1
-9 -7 -19 -13 -21 -7 -3 7 -6 32 -6 25 -1 51 -5 59 -10 8 -5 -5 -7 -35 -4 -27
3 -46 3 -43 -1 3 -3 18 -7 32 -8 34 -3 35 -14 2 -20 -13 -3 -22 -1 -19 3 3 5
-11 9 -30 9 -25 0 -36 -4 -36 -15 0 -10 -11 -16 -32 -17 l-33 -1 35 -5 35 -5
-30 -7 c-26 -7 -24 -8 20 -10 45 -2 47 -3 20 -10 -28 -7 -28 -8 -5 -9 15 -1
20 -4 13 -9 -8 -5 -3 -11 13 -19 17 -8 24 -8 24 0 0 6 2 8 5 5 3 -3 3 -12 -1
-21 -5 -14 -8 -14 -20 -3 -8 8 -23 12 -35 9 -14 -4 -20 -2 -16 4 4 6 0 14 -9
17 -8 3 -13 10 -9 16 4 6 -6 7 -27 3 -51 -9 -69 -23 -23 -18 40 5 39 5 -8 -9
-27 -8 -52 -18 -55 -22 -4 -4 2 -4 13 0 10 4 40 9 65 11 34 4 39 3 20 -4 -25
-9 -25 -9 5 -11 26 -2 24 -4 -17 -14 -38 -9 -46 -14 -38 -26 14 -22 12 -33 -4
-18 -8 7 -12 16 -9 21 2 4 -3 7 -11 7 -20 0 -20 -5 -1 -24 8 -8 11 -17 6 -21
-5 -3 -12 4 -16 15 -7 21 -21 25 -42 12 -8 -5 -8 -13 2 -32 8 -14 14 -21 15
-17 0 4 6 2 14 -5 8 -7 12 -17 9 -21 -3 -4 -15 3 -28 18 -13 14 -30 25 -37 25
-9 0 -9 3 2 10 23 15 11 12 -60 -15 -70 -26 -70 -35 0 -10 26 9 48 12 57 6 11
-6 12 -10 4 -15 -6 -4 -11 -3 -11 3 0 6 -11 6 -32 -1 -18 -6 -27 -13 -20 -16
7 -2 9 -9 5 -15 -4 -7 0 -8 12 -3 16 6 16 4 4 -11 -9 -11 -10 -14 -1 -9 7 4
22 4 34 0 19 -6 20 -7 4 -16 -9 -5 -24 -7 -32 -4 -9 3 -25 1 -36 -5 -28 -15
-45 10 -20 29 15 12 13 12 -12 6 -21 -5 -27 -4 -22 5 4 6 2 11 -4 11 -7 0 -24
13 -38 28 -15 15 -45 36 -67 46 -85 40 -125 88 -124 151 0 39 4 52 49 165 12
30 26 72 31 93 5 20 41 94 80 163 39 70 74 136 79 148 4 12 29 52 54 88 46 66
91 107 156 142 19 10 53 34 75 52 58 47 287 163 375 189 86 26 124 29 162 12z
m321 -276 c15 -22 27 -45 27 -51 0 -21 -117 79 -122 104 l-5 25 37 -19 c20
-10 48 -37 63 -59z m-26 -43 c22 -18 47 -43 57 -55 17 -23 17 -23 -17 -23 -27
0 -40 7 -59 33 -29 37 -44 77 -30 77 6 0 28 -15 49 -32z m-441 -34 c-9 -8 -16
-21 -17 -27 0 -7 -4 -3 -8 8 -6 14 -4 22 8 27 27 11 33 9 17 -8z m192 -61
c-10 -2 -18 -11 -18 -19 0 -8 -4 -14 -9 -14 -5 0 -7 9 -4 20 3 13 13 20 27 19
17 -1 17 -2 4 -6z m-408 -89 c0 -2 -9 -4 -20 -4 -11 0 -20 4 -20 9 0 5 9 7 20
4 11 -3 20 -7 20 -9z m788 -89 c46 -51 68 -150 40 -172 -7 -6 -22 -9 -32 -7
-27 4 -71 -26 -54 -37 9 -6 5 -9 -12 -10 -26 -1 -32 -2 -91 -14 -32 -7 -33 -6
-14 9 19 15 19 15 -5 10 -23 -4 -22 -3 5 11 l30 16 -27 -4 c-15 -2 -25 0 -22
4 3 5 13 9 22 9 10 0 13 3 7 8 -23 16 -8 36 35 49 l45 12 -45 -4 c-25 -3 -39
-2 -33 1 10 4 10 11 2 26 -6 11 -9 29 -6 39 3 10 1 19 -5 19 -5 0 -6 5 -2 12
4 7 3 8 -5 4 -6 -4 -18 0 -27 8 -8 9 -23 16 -31 16 -9 0 -13 3 -9 7 4 4 39 6
79 5 40 -1 79 2 87 8 24 16 36 12 68 -25z m-308 -75 c-8 -5 -19 -10 -25 -10
-5 0 -3 5 5 10 8 5 20 10 25 10 6 0 3 -5 -5 -10z m-30 -35 c0 -5 -5 -3 -10 5
-5 8 -10 20 -10 25 0 6 5 3 10 -5 5 -8 10 -19 10 -25z m-40 -10 c0 -5 -5 -3
-10 5 -5 8 -10 20 -10 25 0 6 5 3 10 -5 5 -8 10 -19 10 -25z m13 -24 c-10 -10
-27 -21 -38 -23 -11 -2 -19 -10 -17 -16 1 -8 -15 -13 -45 -14 l-48 -1 55 -7
55 -7 -55 -3 -55 -3 60 -7 c33 -4 49 -8 35 -10 -24 -2 -24 -3 5 -10 29 -7 29
-7 -15 -16 l-45 -8 35 -7 c33 -6 33 -7 -15 -9 l-50 -3 55 -7 55 -7 -75 -3
c-47 -2 -61 -5 -37 -7 20 -2 37 -9 37 -14 0 -6 -4 -7 -10 -4 -5 3 -10 -2 -10
-12 -1 -17 -1 -17 -11 0 -5 9 -18 17 -28 17 -11 0 -21 9 -24 21 -5 18 -2 20
21 15 26 -5 26 -5 -3 8 l-30 14 25 5 c24 4 24 4 -3 6 -18 1 -26 5 -21 12 3 6
0 15 -7 20 -11 7 -9 9 6 10 l20 0 -20 9 c-18 8 -18 9 5 10 23 1 23 2 5 10 -16
7 -14 9 15 9 26 1 31 4 20 11 -12 8 -8 10 15 11 29 1 30 1 5 9 -21 7 -17 8 20
9 32 0 41 -2 30 -9 -11 -7 -4 -10 26 -10 28 0 44 5 48 15 3 8 10 15 16 15 6 0
3 -9 -7 -19z m-30 2 c-7 -2 -19 -2 -25 0 -7 3 -2 5 12 5 14 0 19 -2 13 -5z
m97 3 c0 -2 -7 -7 -16 -10 -8 -3 -12 -2 -9 4 6 10 25 14 25 6z m9 -86 c11 -24
11 -24 -3 -6 -9 11 -16 24 -16 30 0 12 5 7 19 -24z m71 6 c0 -2 -7 -7 -16 -10
-8 -3 -12 -2 -9 4 6 10 25 14 25 6z m-20 -66 c5 0 7 7 4 15 -4 8 -4 15 -1 15
3 0 8 -7 11 -15 4 -10 -3 -19 -18 -27 -16 -7 -23 -16 -19 -27 4 -13 3 -13 -5
-2 -5 7 -15 10 -21 7 -6 -4 -11 -2 -11 3 0 6 6 11 14 11 8 0 18 5 22 12 4 7 3
8 -4 4 -7 -4 -12 -2 -12 3 0 6 5 11 12 11 6 0 9 3 5 6 -3 4 -24 -1 -47 -10
-22 -9 -40 -11 -40 -6 0 6 7 10 15 10 26 0 65 23 66 39 0 9 5 1 10 -16 5 -18
14 -33 19 -33z m140 41 c0 -9 -60 -24 -68 -17 -2 3 11 9 29 15 19 5 35 10 37
10 1 1 2 -3 2 -8z m-210 -11 c-8 -5 -19 -10 -25 -10 -5 0 -3 5 5 10 8 5 20 10
25 10 6 0 3 -5 -5 -10z m-62 -17 c-11 -3 -15 -11 -12 -21 5 -15 4 -15 -5 -2
-16 23 -13 30 12 29 16 -1 17 -3 5 -6z m252 -3 c-8 -5 -19 -10 -25 -10 -5 0
-3 5 5 10 8 5 20 10 25 10 6 0 3 -5 -5 -10z m-100 -34 c0 -2 -7 -6 -15 -10 -8
-3 -15 -1 -15 4 0 6 7 10 15 10 8 0 15 -2 15 -4z m-200 -10 c0 -9 -30 -14 -35
-6 -4 6 3 10 14 10 12 0 21 -2 21 -4z m404 -35 c18 -20 41 -89 32 -98 -2 -3
-14 13 -26 36 -26 51 -36 54 -14 4 29 -69 34 -94 21 -114 -15 -23 -52 -26 -43
-3 3 8 2 12 -4 9 -5 -3 -16 7 -25 22 l-16 28 5 -37 c4 -31 1 -38 -12 -39 -10
0 -12 -3 -5 -5 24 -10 2 -30 -28 -26 -21 3 -28 1 -26 -9 2 -8 2 -11 0 -6 -3 4
-12 7 -21 7 -15 0 -15 2 -2 10 8 5 11 10 5 10 -5 0 -16 -4 -23 -9 -11 -7 -11
-9 2 -14 9 -4 16 -12 15 -19 0 -10 -2 -10 -6 0 -4 10 -9 9 -20 -5 -8 -10 -12
-12 -8 -5 7 14 4 15 -20 6 -13 -6 -14 -9 -3 -16 9 -7 7 -8 -8 -3 -11 3 -37 -1
-56 -9 -27 -12 -50 -13 -99 -7 -47 6 -54 9 -29 11 19 1 46 6 60 11 21 7 20 8
-9 4 -18 -3 -59 -5 -90 -6 -43 -1 -50 -3 -31 -9 25 -8 24 -8 -5 -9 -16 0 -41
2 -55 6 l-25 7 30 7 30 7 -34 1 c-25 1 -32 5 -27 16 3 8 0 15 -7 15 -7 0 -12
17 -13 44 -1 36 2 43 15 39 14 -4 14 -3 1 6 -8 6 -15 16 -15 23 -1 20 35 48
62 48 12 0 23 6 23 13 0 9 3 8 9 -2 6 -10 17 -11 37 -6 16 5 38 10 49 12 11 1
41 7 67 13 26 5 54 7 62 4 8 -3 29 2 48 12 85 44 203 57 232 25z m-811 -28
c-7 -2 -19 -2 -25 0 -7 3 -2 5 12 5 14 0 19 -2 13 -5z m-63 -57 c0 -3 -4 -8
-10 -11 -5 -3 -10 -1 -10 4 0 6 5 11 10 11 6 0 10 -2 10 -4z m57 -12 c-3 -3
-12 -4 -19 -1 -8 3 -5 6 6 6 11 1 17 -2 13 -5z m-137 -135 c0 8 2 12 5 9 3 -3
3 -12 -1 -21 -4 -13 -9 -14 -19 -4 -7 7 -11 16 -8 21 3 4 9 2 14 -5 7 -12 9
-12 9 0z m53 4 c-7 -2 -19 -2 -25 0 -7 3 -2 5 12 5 14 0 19 -2 13 -5z m-3 -17
c0 -2 -9 -6 -20 -9 -11 -3 -18 -1 -14 4 5 9 34 13 34 5z m33 -21 c-3 -9 -8
-14 -10 -11 -3 3 -2 9 2 15 9 16 15 13 8 -4z m-43 -5 c0 -5 -5 -10 -11 -10 -5
0 -7 5 -4 10 3 6 8 10 11 10 2 0 4 -4 4 -10z m-211 -49 c9 -6 10 -11 2 -15 -6
-4 -11 -3 -11 3 0 5 -8 12 -17 14 -13 3 -14 5 -3 6 8 0 21 -3 29 -8z m66 -29
c-6 -7 -34 11 -29 19 3 5 11 3 19 -4 7 -6 12 -13 10 -15z m68 -12 c-3 -11 -7
-20 -9 -20 -2 0 -4 9 -4 20 0 11 4 20 9 20 5 0 7 -9 4 -20z m931 -19 c37 -41
45 -151 10 -151 -18 0 -18 8 1 26 17 17 11 65 -12 102 -21 34 -26 21 -7 -16
24 -49 15 -86 -21 -93 -20 -5 -24 -7 -10 -9 11 -1 15 -4 8 -6 -7 -3 -9 -13 -6
-22 5 -15 4 -15 -8 0 -10 13 -18 15 -29 8 -12 -8 -12 -10 5 -11 l20 0 -20 -9
c-11 -5 -27 -9 -35 -9 -13 -1 -13 0 0 9 13 8 12 10 -2 10 -10 0 -18 -6 -18
-13 0 -7 -20 -23 -45 -35 -48 -23 -81 -30 -55 -11 12 9 12 10 -3 5 -10 -3 -24
-6 -30 -6 -8 0 -7 -3 1 -9 17 -10 -36 -31 -79 -31 -16 0 -29 -6 -30 -12 0 -10
-2 -10 -6 0 -2 6 -9 12 -14 12 -6 0 -8 -4 -5 -9 4 -5 -5 -4 -19 2 -23 11 -21
12 28 18 l52 6 -58 1 c-32 1 -56 6 -53 11 3 5 -2 12 -12 16 -15 7 -14 9 8 15
21 7 22 8 5 9 -17 1 -17 3 -5 11 13 8 13 10 -2 10 -9 0 -18 -6 -21 -12 -3 -7
-4 -3 -4 9 1 12 4 20 8 17 4 -2 9 5 12 16 3 11 0 20 -6 21 -7 0 -6 3 2 6 11 5
11 7 0 14 -10 6 -8 9 9 9 13 0 22 -6 22 -15 0 -25 14 -17 35 22 16 30 27 38
55 41 19 2 37 8 38 13 2 5 8 6 13 3 6 -3 37 4 70 16 33 13 62 20 65 18 3 -3
24 0 47 8 59 18 81 17 101 -5z m-1024 4 c0 -2 -9 -9 -20 -15 -12 -6 -20 -7
-20 -1 0 5 8 12 18 14 9 3 18 5 20 6 1 0 2 -1 2 -4z m-80 -15 c-8 -5 -19 -10
-25 -10 -5 0 -3 5 5 10 8 5 20 10 25 10 6 0 3 -5 -5 -10z m45 -28 c-6 -7 -34
11 -29 19 3 5 11 3 19 -4 7 -6 12 -13 10 -15z m65 18 c8 -5 11 -10 5 -10 -5 0
-17 5 -25 10 -8 5 -10 10 -5 10 6 0 17 -5 25 -10z m-165 -10 c-11 -5 -27 -9
-35 -9 -13 -1 -13 0 0 9 8 5 24 9 35 9 l20 0 -20 -9z m25 -60 c-8 -5 -19 -10
-25 -10 -5 0 -3 5 5 10 8 5 20 10 25 10 6 0 3 -5 -5 -10z m437 -42 c-3 -7 -5
-2 -5 12 0 14 2 19 5 13 2 -7 2 -19 0 -25z m-457 -8 c-8 -5 -19 -10 -25 -10
-5 0 -3 5 5 10 8 5 20 10 25 10 6 0 3 -5 -5 -10z m70 -95 c0 -5 -5 -3 -10 5
-5 8 -10 20 -10 25 0 6 5 3 10 -5 5 -8 10 -19 10 -25z m458 21 c-7 -8 -17 -12
-22 -9 -4 3 -2 9 5 14 22 13 31 11 17 -5z m485 -13 c-18 -9 -33 -24 -34 -32 0
-12 -2 -13 -6 -2 -5 11 -7 11 -14 0 -6 -10 -9 -10 -9 -2 0 12 66 52 85 52 6 0
-5 -8 -22 -16z m-478 -12 c-3 -6 -11 -11 -16 -11 -5 0 -4 6 3 14 14 16 24 13
13 -3z m-575 -1 c-14 -4 -38 -8 -55 -8 -29 1 -29 1 5 8 50 11 83 11 50 0z
m140 -25 c0 -5 -5 -3 -10 5 -5 8 -10 20 -10 25 0 6 5 3 10 -5 5 -8 10 -19 10
-25z m352 18 c-10 -4 -9 -8 5 -18 16 -12 14 -13 -12 -9 -25 4 -27 3 -10 -5
l20 -10 -20 0 c-17 -1 -17 -3 -5 -11 12 -8 8 -10 -15 -11 -26 -1 -23 -3 15
-12 41 -9 43 -11 20 -18 -20 -5 -21 -7 -5 -7 22 -1 67 16 48 17 -7 1 -13 8
-13 16 0 18 -16 20 -23 3 -4 -10 -6 -10 -6 -1 -1 18 16 25 40 18 17 -6 19 -9
8 -17 -10 -7 -8 -8 7 -3 20 5 120 -32 111 -42 -3 -2 -15 1 -27 7 -12 6 -24 10
-26 7 -3 -2 9 -10 27 -17 26 -11 32 -11 40 1 5 8 9 10 9 4 0 -30 -16 -34 -59
-14 -59 26 -66 23 -11 -6 25 -13 38 -24 30 -25 -12 0 -11 -3 3 -11 9 -6 15
-14 12 -20 -4 -5 -2 -9 4 -9 5 0 12 5 14 10 3 6 4 5 3 -2 -2 -8 -15 -12 -32
-11 -20 2 -25 0 -15 -6 7 -5 10 -14 7 -20 -4 -6 -2 -11 5 -11 7 0 10 -3 6 -6
-3 -3 -31 6 -63 20 -31 14 -61 26 -68 25 -6 0 15 -13 46 -27 51 -24 55 -28 40
-42 -14 -13 -15 -12 -9 3 3 9 2 17 -3 17 -9 0 -13 -12 -12 -30 0 -3 -10 -5
-23 -5 -13 0 -21 3 -18 8 2 4 -9 10 -26 13 -17 4 -31 10 -31 15 0 5 18 2 40
-7 23 -9 43 -14 46 -11 3 3 -18 13 -47 22 -36 12 -47 20 -38 26 11 7 10 9 -3
9 -10 0 -18 -4 -18 -10 0 -5 -27 -7 -67 -3 -38 3 -66 3 -63 0 3 -3 24 -7 47
-8 33 -2 41 -6 40 -21 -1 -14 -10 -18 -39 -18 -23 0 -38 5 -39 13 0 10 -2 10
-6 0 -2 -7 -17 -13 -31 -14 -23 0 -24 -2 -8 -8 18 -7 18 -8 2 -14 -10 -4 -27
-7 -39 -8 -21 0 -21 -1 -3 -8 18 -7 18 -8 2 -14 -10 -4 -24 -1 -32 7 -12 12
-10 16 14 24 21 8 23 11 7 11 -17 1 -18 3 -5 12 11 7 4 8 -25 4 -29 -4 -35 -3
-20 4 l20 10 -20 1 c-17 1 -15 3 9 16 36 20 21 44 -16 26 -22 -11 -21 -11 7
-7 22 4 13 -3 -30 -24 -70 -34 -93 -39 -50 -11 18 12 24 20 15 21 -8 0 8 12
35 26 33 16 40 22 22 18 -19 -4 -26 -2 -22 4 4 7 0 8 -10 4 -12 -4 -13 -8 -5
-13 7 -4 -1 -12 -20 -20 -19 -8 -27 -16 -20 -20 14 -9 -61 -40 -93 -39 -14 1
-6 6 22 15 52 16 69 28 26 19 -22 -5 -16 0 20 18 56 29 57 35 0 11 -20 -8 -39
-13 -42 -11 -2 3 37 22 86 43 50 21 89 40 87 42 -3 2 -25 -5 -50 -17 -44 -19
-52 -17 -47 13 1 5 -5 6 -14 3 -22 -9 -18 1 6 14 15 8 19 8 15 0 -4 -6 -5 -11
-2 -11 2 0 12 -3 22 -7 13 -5 15 -3 9 7 -6 10 -4 12 8 7 16 -6 82 11 74 19 -2
3 -17 0 -32 -6 -15 -6 -30 -8 -33 -5 -3 3 9 10 27 16 18 6 30 13 28 16 -3 2
-22 -3 -42 -11 -46 -20 -56 -20 -30 -2 35 24 131 46 207 48 l73 1 -60 7 -60 7
65 2 c48 2 58 5 40 11 -23 6 -21 8 15 12 60 7 72 7 57 1z m53 -24 c-4 -5 -1
-9 4 -9 6 0 11 5 11 11 0 5 4 7 10 4 19 -12 -13 -34 -34 -23 -15 8 -16 12 -5
19 11 7 10 9 -3 9 -10 0 -18 5 -18 10 0 7 7 7 20 0 11 -6 18 -15 15 -21z
m-550 11 c-3 -5 -12 -10 -18 -10 -7 0 -6 4 3 10 19 12 23 12 15 0z m90 0 c-3
-5 -12 -10 -18 -10 -7 0 -6 4 3 10 19 12 23 12 15 0z m125 6 c0 -2 -7 -7 -16
-10 -8 -3 -12 -2 -9 4 6 10 25 14 25 6z m415 -16 c3 -5 1 -10 -4 -10 -6 0 -11
5 -11 10 0 6 2 10 4 10 3 0 8 -4 11 -10z m322 -1 c-11 -6 -33 -13 -50 -15 -18
-3 -38 -7 -44 -9 -7 -2 -13 -1 -13 3 0 5 24 13 53 19 72 14 75 14 54 2z m-777
-3 c0 -2 -7 -7 -16 -10 -8 -3 -12 -2 -9 4 6 10 25 14 25 6z m-355 -27 c6 -6
-1 -6 -18 0 -16 6 -40 9 -55 6 -23 -5 -24 -4 -7 4 22 11 64 5 80 -10z m847 -9
c-9 -11 -20 -20 -25 -20 -5 0 -1 7 7 16 9 8 16 20 16 25 0 6 4 8 10 4 5 -3 2
-14 -8 -25z m-47 0 c3 -5 -4 -6 -15 -3 -11 3 -22 9 -25 13 -3 5 4 6 15 3 11
-3 22 -9 25 -13z m-825 0 c13 -8 13 -10 -2 -10 -9 0 -20 5 -23 10 -8 13 5 13
25 0z m300 -44 c0 -12 -5 -7 -19 24 -11 24 -11 24 3 6 9 -11 16 -24 16 -30z
m70 39 c0 -2 -10 -9 -22 -15 -22 -11 -22 -10 -4 4 21 17 26 19 26 11z m-100
-69 c0 -2 -7 -6 -15 -10 -8 -3 -15 -1 -15 4 0 6 7 10 15 10 8 0 15 -2 15 -4z
m-47 -13 c-7 -2 -19 -2 -25 0 -7 3 -2 5 12 5 14 0 19 -2 13 -5z m62 -3 c-3 -5
-12 -10 -18 -10 -7 0 -6 4 3 10 19 12 23 12 15 0z m-47 -31 l27 -1 -25 -8
c-14 -4 -34 -8 -45 -8 -16 0 -16 1 -3 5 9 2 16 10 14 16 -1 7 -1 9 1 5 3 -5
17 -8 31 -9z m-218 -59 c0 -11 -2 -20 -4 -20 -2 0 -6 9 -9 20 -3 11 -1 20 4
20 5 0 9 -9 9 -20z m220 10 c0 -5 -8 -10 -17 -10 -15 0 -16 2 -3 10 19 12 20
12 20 0z m-150 -11 c0 -5 -7 -9 -16 -9 -8 0 -13 -4 -10 -9 4 -5 -4 -6 -16 -3
-19 5 -20 7 -5 10 9 2 15 7 13 11 -3 4 4 8 15 8 10 1 19 -2 19 -8z m107 -21
c-3 -7 -5 -2 -5 12 0 14 2 19 5 13 2 -7 2 -19 0 -25z m476 25 c-7 -2 -19 -2
-25 0 -7 3 -2 5 12 5 14 0 19 -2 13 -5z m28 -31 c-19 -3 -21 -6 -10 -13 11 -7
11 -9 -3 -9 -10 0 -16 7 -15 18 1 14 7 17 26 13 l26 -5 -24 -4z m-432 -6 c-2
-2 -22 -7 -44 -11 -47 -8 -41 4 7 14 31 7 47 6 37 -3z m324 -3 c-13 -2 -33 -2
-45 0 -13 2 -3 4 22 4 25 0 35 -2 23 -4z m-486 -35 c-3 -7 -5 -2 -5 12 0 14 2
19 5 13 2 -7 2 -19 0 -25z m643 12 c0 -5 -9 -6 -20 -3 -11 3 -20 9 -20 13 0 5
9 6 20 3 11 -3 20 -9 20 -13z m17 -2 c-3 -8 -6 -5 -6 6 -1 11 2 17 5 13 3 -3
4 -12 1 -19z m-512 2 c-28 -12 -47 -12 -40 0 3 6 18 10 33 9 24 0 25 -1 7 -9z
m328 3 c-7 -2 -19 -2 -25 0 -7 3 -2 5 12 5 14 0 19 -2 13 -5z m24 -15 c-3 -8
-6 -5 -6 6 -1 11 2 17 5 13 3 -3 4 -12 1 -19z m-193 6 c9 -3 13 -10 10 -15 -3
-5 3 -9 13 -9 15 0 16 -2 3 -10 -12 -8 -12 -10 -1 -10 8 0 12 -2 9 -5 -8 -9
-38 6 -32 16 3 5 -3 9 -13 10 -12 0 -14 2 -4 6 11 5 11 7 0 14 -16 10 -8 12
15 3z m-397 -36 c-3 -7 -5 -2 -5 12 0 14 2 19 5 13 2 -7 2 -19 0 -25z m553 28
c0 -3 -4 -8 -10 -11 -5 -3 -10 -1 -10 4 0 6 5 11 10 11 6 0 10 -2 10 -4z
m-500 -10 c0 -3 -4 -8 -10 -11 -5 -3 -10 -1 -10 4 0 6 5 11 10 11 6 0 10 -2
10 -4z m397 -28 c-3 -7 -5 -2 -5 12 0 14 2 19 5 13 2 -7 2 -19 0 -25z m206 25
c-7 -2 -19 -2 -25 0 -7 3 -2 5 12 5 14 0 19 -2 13 -5z m-500 -10 c-7 -2 -19
-2 -25 0 -7 3 -2 5 12 5 14 0 19 -2 13 -5z m27 -17 c0 -2 -18 -6 -40 -8 -22
-2 -40 0 -40 4 0 5 18 8 40 8 22 0 40 -2 40 -4z m80 -6 c-11 -7 -11 -10 -2
-10 7 0 10 -4 7 -10 -4 -6 -11 -5 -19 3 -14 12 -4 27 19 27 6 0 3 -5 -5 -10z
m-249 -27 c-12 -20 -14 -14 -5 12 4 9 9 14 11 11 3 -2 0 -13 -6 -23z m79 13
c0 -3 -4 -8 -10 -11 -5 -3 -10 -1 -10 4 0 6 5 11 10 11 6 0 10 -2 10 -4z m60
-26 c0 -5 -5 -10 -11 -10 -5 0 -7 5 -4 10 3 6 8 10 11 10 2 0 4 -4 4 -10z
m-175 -98 c-3 -3 -11 0 -18 7 -9 10 -8 11 6 5 10 -3 15 -9 12 -12z m-314 -89
c-12 -20 -14 -14 -5 12 4 9 9 14 11 11 3 -2 0 -13 -6 -23z m26 -5 c-3 -8 -6
-5 -6 6 -1 11 2 17 5 13 3 -3 4 -12 1 -19z"/>
<path d="M1447 2783 c-4 -3 -7 -13 -7 -22 1 -13 3 -13 11 2 11 19 8 33 -4 20z"/>
<path d="M1598 2703 c7 -3 16 -2 19 1 4 3 -2 6 -13 5 -11 0 -14 -3 -6 -6z"/>
<path d="M1367 2649 c7 -7 15 -10 18 -7 3 3 -2 9 -12 12 -14 6 -15 5 -6 -5z"/>
<path d="M1344 2636 c11 -9 24 -16 30 -16 12 0 7 5 -24 19 -24 11 -24 11 -6
-3z"/>
<path d="M1578 2633 c12 -2 30 -2 40 0 9 3 -1 5 -23 4 -22 0 -30 -2 -17 -4z"/>
<path d="M1695 2630 c-13 -5 -14 -9 -5 -9 8 0 24 4 35 9 13 5 14 9 5 9 -8 0
-24 -4 -35 -9z"/>
<path d="M1765 2585 c-16 -8 -23 -14 -14 -15 8 0 24 7 35 15 23 18 18 18 -21
0z"/>
<path d="M1248 2573 c7 -3 16 -2 19 1 4 3 -2 6 -13 5 -11 0 -14 -3 -6 -6z"/>
<path d="M1213 2533 c9 -2 23 -2 30 0 6 3 -1 5 -18 5 -16 0 -22 -2 -12 -5z"/>
<path d="M1138 2473 c12 -2 30 -2 40 0 9 3 -1 5 -23 4 -22 0 -30 -2 -17 -4z"/>
<path d="M1098 2403 c6 -2 18 -2 25 0 6 3 1 5 -13 5 -14 0 -19 -2 -12 -5z"/>
<path d="M1130 2376 c0 -8 5 -18 12 -22 7 -5 9 -2 5 9 -3 9 -1 18 6 21 7 2 4
5 -5 5 -10 1 -18 -5 -18 -13z"/>
<path d="M1163 2243 c9 -2 25 -2 35 0 9 3 1 5 -18 5 -19 0 -27 -2 -17 -5z"/>
<path d="M1233 2123 c9 -2 23 -2 30 0 6 3 -1 5 -18 5 -16 0 -22 -2 -12 -5z"/>
<path d="M1108 2063 c6 -2 18 -2 25 0 6 3 1 5 -13 5 -14 0 -19 -2 -12 -5z"/>
<path d="M1088 2013 c7 -3 16 -2 19 1 4 3 -2 6 -13 5 -11 0 -14 -3 -6 -6z"/>
<path d="M995 2000 c-13 -6 -15 -9 -5 -9 8 0 22 4 30 9 18 12 2 12 -25 0z"/>
<path d="M1025 1985 c-25 -12 -26 -14 -5 -9 14 4 29 10 35 15 12 12 5 11 -30
-6z"/>
<path d="M1108 1973 c7 -3 16 -2 19 1 4 3 -2 6 -13 5 -11 0 -14 -3 -6 -6z"/>
<path d="M1026 1962 c-2 -4 11 -6 30 -4 19 2 34 6 34 8 0 8 -59 4 -64 -4z"/>
<path d="M1061 1948 c-67 -12 -73 -18 -11 -11 30 3 57 7 59 9 10 9 -7 10 -48
2z"/>
<path d="M865 1855 c-25 -12 -26 -14 -5 -9 14 4 29 10 35 15 12 12 5 11 -30
-6z"/>
<path d="M956 1850 c-43 -22 -60 -25 -51 -11 5 9 -84 -16 -95 -27 -6 -5 39 4
66 15 11 4 15 3 11 -5 -4 -6 -22 -14 -40 -18 -17 -4 -27 -9 -20 -11 6 -2 28 3
48 11 47 20 68 20 35 0 -25 -15 -25 -15 -1 -8 18 5 22 3 16 -7 -6 -9 -3 -10
11 -4 10 4 42 16 69 26 28 10 42 18 32 19 -10 0 -34 -7 -54 -15 -46 -19 -65
-19 -33 1 25 15 25 15 1 8 -16 -4 -21 -3 -17 5 4 6 13 11 20 11 7 0 21 7 32
15 26 20 17 18 -30 -5z"/>
<path d="M845 1781 c-17 -7 -16 -9 10 -14 17 -3 37 -1 45 4 11 7 8 8 -9 3 -16
-4 -21 -3 -17 5 8 12 0 13 -29 2z"/>
<path d="M808 1743 c7 -3 16 -2 19 1 4 3 -2 6 -13 5 -11 0 -14 -3 -6 -6z"/>
<path d="M838 1663 c7 -3 16 -2 19 1 4 3 -2 6 -13 5 -11 0 -14 -3 -6 -6z"/>
<path d="M2004 2337 c4 -15 9 -47 13 -72 5 -37 9 -45 27 -45 12 0 16 3 10 8
-6 4 -16 30 -23 57 -13 54 -38 103 -27 52z"/>
<path d="M2032 2348 c2 -6 10 -14 16 -16 7 -2 10 2 6 12 -7 18 -28 22 -22 4z"/>
<path d="M2078 2223 c7 -3 16 -2 19 1 4 3 -2 6 -13 5 -11 0 -14 -3 -6 -6z"/>
<path d="M1588 2203 c6 -2 18 -2 25 0 6 3 1 5 -13 5 -14 0 -19 -2 -12 -5z"/>
<path d="M1780 1980 c-19 -11 -31 -19 -27 -20 11 0 67 29 67 35 0 7 -1 7 -40
-15z"/>
<path d="M1708 1973 c7 -3 16 -2 19 1 4 3 -2 6 -13 5 -11 0 -14 -3 -6 -6z"/>
<path d="M1668 1963 c7 -3 16 -2 19 1 4 3 -2 6 -13 5 -11 0 -14 -3 -6 -6z"/>
<path d="M1790 1960 c-9 -6 -10 -10 -3 -10 6 0 15 5 18 10 8 12 4 12 -15 0z"/>
<path d="M1498 1943 c7 -3 16 -2 19 1 4 3 -2 6 -13 5 -11 0 -14 -3 -6 -6z"/>
<path d="M1745 1875 c-25 -12 -26 -14 -5 -9 28 7 60 23 45 23 -5 0 -23 -6 -40
-14z"/>
<path d="M1790 1870 c-11 -7 -11 -10 -2 -10 8 0 10 -5 6 -12 -4 -7 -3 -9 1 -5
7 6 17 37 12 37 -1 0 -9 -5 -17 -10z"/>
<path d="M1745 1850 c-3 -6 1 -7 9 -4 18 7 21 14 7 14 -6 0 -13 -4 -16 -10z"/>
<path d="M1688 1833 c7 -3 16 -2 19 1 4 3 -2 6 -13 5 -11 0 -14 -3 -6 -6z"/>
<path d="M1725 1825 c-22 -8 -31 -14 -20 -14 11 0 34 6 50 14 38 17 22 17 -30
0z"/>
<path d="M1790 1825 c-14 -8 -20 -14 -14 -15 5 0 19 7 30 15 24 18 16 19 -16
0z"/>
<path d="M1850 1830 c-9 -6 -10 -10 -3 -10 6 0 15 5 18 10 8 12 4 12 -15 0z"/>
<path d="M1908 1823 c7 -3 16 -2 19 1 4 3 -2 6 -13 5 -11 0 -14 -3 -6 -6z"/>
<path d="M1735 1800 c-3 -6 1 -7 9 -4 18 7 21 14 7 14 -6 0 -13 -4 -16 -10z"/>
<path d="M1745 1784 l-30 -15 28 6 c19 4 26 2 22 -5 -9 -15 6 -12 45 11 19 11
26 17 15 13 -11 -3 -29 -8 -40 -11 -16 -4 -17 -3 -5 6 21 15 1 12 -35 -5z"/>
<path d="M1508 1783 c7 -3 16 -2 19 1 4 3 -2 6 -13 5 -11 0 -14 -3 -6 -6z"/>
<path d="M1668 1783 c6 -2 18 -2 25 0 6 3 1 5 -13 5 -14 0 -19 -2 -12 -5z"/>
<path d="M1583 1773 c9 -2 25 -2 35 0 9 3 1 5 -18 5 -19 0 -27 -2 -17 -5z"/>
<path d="M1705 1750 l-20 -9 20 0 c11 0 27 4 35 9 13 9 13 10 0 9 -8 0 -24 -4
-35 -9z"/>
<path d="M1885 1500 c-3 -6 1 -7 9 -4 18 7 21 14 7 14 -6 0 -13 -4 -16 -10z"/>
<path d="M1820 1455 c-14 -8 -20 -14 -14 -15 5 0 19 7 30 15 24 18 16 19 -16
0z"/>
<path d="M1678 1423 c7 -3 16 -2 19 1 4 3 -2 6 -13 5 -11 0 -14 -3 -6 -6z"/>
<path d="M1676 1401 c-4 -5 3 -7 14 -4 23 6 26 13 6 13 -8 0 -17 -4 -20 -9z"/>
<path d="M1078 1313 c7 -3 16 -2 19 1 4 3 -2 6 -13 5 -11 0 -14 -3 -6 -6z"/>
<path d="M1168 1313 c7 -3 16 -2 19 1 4 3 -2 6 -13 5 -11 0 -14 -3 -6 -6z"/>
<path d="M1213 1313 c9 -2 23 -2 30 0 6 3 -1 5 -18 5 -16 0 -22 -2 -12 -5z"/>
<path d="M1040 1290 c-23 -7 -23 -8 -3 -9 12 -1 25 4 28 9 3 6 5 10 3 9 -2 -1
-14 -5 -28 -9z"/>
<path d="M1153 1293 c15 -2 39 -2 55 0 15 2 2 4 -28 4 -30 0 -43 -2 -27 -4z"/>
<path d="M1248 1283 c6 -2 18 -2 25 0 6 3 1 5 -13 5 -14 0 -19 -2 -12 -5z"/>
<path d="M1360 1270 c19 -11 28 -19 20 -20 -13 0 -13 -1 0 -10 8 -5 20 -10 25
-10 6 0 3 5 -5 10 -13 9 -13 10 0 10 16 1 -48 39 -65 39 -5 0 6 -8 25 -19z"/>
<path d="M1048 1263 c7 -3 16 -2 19 1 4 3 -2 6 -13 5 -11 0 -14 -3 -6 -6z"/>
<path d="M1238 1263 c6 -2 18 -2 25 0 6 3 1 5 -13 5 -14 0 -19 -2 -12 -5z"/>
<path d="M1330 1260 c8 -5 20 -10 25 -10 6 0 3 5 -5 10 -8 5 -19 10 -25 10 -5
0 -3 -5 5 -10z"/>
<path d="M985 1250 c-13 -6 -15 -9 -5 -9 8 0 22 4 30 9 18 12 2 12 -25 0z"/>
<path d="M1288 1253 c7 -3 16 -2 19 1 4 3 -2 6 -13 5 -11 0 -14 -3 -6 -6z"/>
<path d="M1058 1243 c6 -2 18 -2 25 0 6 3 1 5 -13 5 -14 0 -19 -2 -12 -5z"/>
<path d="M1228 1243 c6 -2 18 -2 25 0 6 3 1 5 -13 5 -14 0 -19 -2 -12 -5z"/>
<path d="M1278 1233 c7 -3 16 -2 19 1 4 3 -2 6 -13 5 -11 0 -14 -3 -6 -6z"/>
<path d="M1350 1230 c8 -5 20 -10 25 -10 6 0 3 5 -5 10 -8 5 -19 10 -25 10 -5
0 -3 -5 5 -10z"/>
<path d="M1055 1220 c-3 -6 1 -7 9 -4 18 7 21 14 7 14 -6 0 -13 -4 -16 -10z"/>
<path d="M1171 1226 c2 -2 31 -6 64 -9 37 -3 51 -2 35 3 -25 8 -107 13 -99 6z"/>
<path d="M1320 1220 c8 -5 20 -10 25 -10 6 0 3 5 -5 10 -8 5 -19 10 -25 10 -5
0 -3 -5 5 -10z"/>
<path d="M1098 1203 c12 -2 30 -2 40 0 9 3 -1 5 -23 4 -22 0 -30 -2 -17 -4z"/>
<path d="M1173 1203 c9 -2 25 -2 35 0 9 3 1 5 -18 5 -19 0 -27 -2 -17 -5z"/>
<path d="M1380 1195 c14 -8 30 -14 35 -14 6 0 -1 6 -15 14 -14 8 -29 14 -35
14 -5 0 1 -6 15 -14z"/>
<path d="M1065 1180 c-28 -7 -28 -8 -5 -9 14 0 32 4 40 9 17 11 8 11 -35 0z"/>
<path d="M1319 1175 c18 -8 36 -15 40 -15 13 1 -45 29 -59 29 -8 0 0 -6 19
-14z"/>
<path d="M1075 1160 l-30 -8 27 -1 c15 0 30 4 33 9 3 6 5 9 3 9 -2 -1 -16 -5
-33 -9z"/>
<path d="M1150 1160 c-9 -6 -10 -10 -3 -10 6 0 15 5 18 10 8 12 4 12 -15 0z"/>
<path d="M738 1643 c6 -2 18 -2 25 0 6 3 1 5 -13 5 -14 0 -19 -2 -12 -5z"/>
<path d="M643 1623 c9 -2 23 -2 30 0 6 3 -1 5 -18 5 -16 0 -22 -2 -12 -5z"/>
<path d="M778 1443 c7 -3 16 -2 19 1 4 3 -2 6 -13 5 -11 0 -14 -3 -6 -6z"/>
<path d="M450 1350 c8 -5 20 -10 25 -10 6 0 3 5 -5 10 -8 5 -19 10 -25 10 -5
0 -3 -5 5 -10z"/>
<path d="M430 1290 c8 -5 20 -10 25 -10 6 0 3 5 -5 10 -8 5 -19 10 -25 10 -5
0 -3 -5 5 -10z"/>
<path d="M408 1273 c7 -3 16 -2 19 1 4 3 -2 6 -13 5 -11 0 -14 -3 -6 -6z"/>
<path d="M500 1260 c8 -5 20 -10 25 -10 6 0 3 5 -5 10 -8 5 -19 10 -25 10 -5
0 -3 -5 5 -10z"/>
<path d="M492 1232 c-9 -6 -5 -12 13 -20 33 -15 36 -15 33 1 -5 23 -25 32 -46
19z"/>
<path d="M340 1217 c-8 -7 -14 -22 -12 -33 2 -12 -4 -29 -13 -38 -12 -12 -13
-16 -3 -17 7 0 4 -4 -7 -9 -11 -5 -15 -9 -10 -9 15 -1 13 -41 -2 -41 -7 0 -13
-6 -13 -12 0 -9 -4 -8 -10 2 -6 10 -10 11 -10 3 0 -8 -15 -13 -37 -14 -34 -1
-35 -2 -13 -9 21 -7 22 -8 5 -10 l-20 -1 20 -8 c17 -7 15 -9 -15 -16 -30 -7
-32 -9 -15 -16 19 -7 19 -8 -2 -8 -12 -1 -25 -6 -29 -13 -4 -7 -3 -8 4 -4 7 4
12 2 12 -3 0 -6 -7 -11 -16 -11 -8 0 -22 -16 -29 -35 -8 -19 -24 -39 -36 -45
-11 -7 -18 -14 -15 -17 3 -3 17 2 31 11 31 20 45 14 37 -16 -5 -19 -4 -20 10
-7 12 10 13 19 6 34 -8 15 -8 17 1 9 7 -6 23 -9 37 -6 17 3 22 7 14 12 -10 6
-10 12 0 26 11 18 11 18 6 -1 -6 -19 -5 -19 8 -2 9 12 28 17 62 17 35 0 45 3
34 10 -12 8 -12 10 5 10 17 0 17 2 5 10 -12 8 -8 10 15 11 27 2 25 3 -10 9
l-40 7 45 3 45 3 -42 6 c-50 9 -68 21 -29 21 16 0 25 4 21 10 -3 6 2 10 12 10
15 0 16 2 3 10 -12 8 -12 10 5 11 l20 0 -20 9 c-18 8 -18 9 5 9 21 1 22 3 10
12 -11 8 -6 9 20 5 31 -6 32 -5 16 7 -18 13 -18 14 -1 21 10 3 27 4 39 1 20
-6 20 -5 3 9 -18 14 -18 14 2 21 11 3 31 1 43 -6 13 -6 19 -7 13 -1 -14 15
-112 52 -136 52 -15 0 -19 5 -15 15 6 18 6 18 -14 2z m-57 -254 c-7 -2 -19 -2
-25 0 -7 3 -2 5 12 5 14 0 19 -2 13 -5z m5 -20 c-10 -2 -26 -2 -35 0 -10 3 -2
5 17 5 19 0 27 -2 18 -5z"/>
<path d="M494 1195 c15 -11 16 -15 5 -15 -8 -1 -1 -8 14 -16 16 -9 31 -13 35
-10 3 3 -1 6 -9 6 -11 0 -11 2 -1 8 8 6 0 14 -25 25 -30 14 -34 14 -19 2z"/>
<path d="M450 1190 c8 -5 20 -10 25 -10 6 0 3 5 -5 10 -8 5 -19 10 -25 10 -5
0 -3 -5 5 -10z"/>
<path d="M425 1110 c27 -12 43 -12 25 0 -8 5 -22 9 -30 9 -10 0 -8 -3 5 -9z"/>
<path d="M378 1033 c7 -3 16 -2 19 1 4 3 -2 6 -13 5 -11 0 -14 -3 -6 -6z"/>
<path d="M368 1013 c7 -3 16 -2 19 1 4 3 -2 6 -13 5 -11 0 -14 -3 -6 -6z"/>
<path d="M198 863 c6 -2 18 -2 25 0 6 3 1 5 -13 5 -14 0 -19 -2 -12 -5z"/>
</g>
</svg>
