<?xml version="1.0" standalone="no"?>
<!DOCTYPE svg PUBLIC "-//W3C//DTD SVG 20010904//EN"
 "http://www.w3.org/TR/2001/REC-SVG-20010904/DTD/svg10.dtd">
<svg version="1.0" xmlns="http://www.w3.org/2000/svg"
 width="300.000000pt" height="333.000000pt" viewBox="0 0 300.000000 333.000000"
 preserveAspectRatio="xMidYMid meet">

<g transform="translate(0.000000,333.000000) scale(0.100000,-0.100000)"
fill="#000000" stroke="none">
<path d="M2375 2851 c-65 -24 -208 -86 -265 -116 -73 -37 -170 -75 -193 -75
-12 0 -51 -17 -87 -37 -36 -20 -99 -54 -140 -75 -92 -49 -180 -102 -240 -144
-49 -34 -297 -158 -450 -225 -52 -22 -131 -64 -174 -91 -76 -49 -265 -158
-272 -158 -12 0 -329 -164 -380 -196 -136 -87 -174 -114 -174 -128 0 -17 100
33 140 70 31 28 177 110 370 207 151 76 273 146 350 202 44 32 170 95 220 110
60 18 324 152 415 212 152 98 306 180 450 238 115 46 285 122 355 160 38 20
130 45 165 45 40 0 71 -23 78 -57 8 -42 -11 -73 -45 -73 -19 0 -27 -4 -22 -11
4 -8 -3 -10 -22 -7 -16 3 -23 3 -16 1 6 -3 12 -9 12 -13 0 -6 -11 -5 -26 0
-36 14 -41 12 -18 -5 18 -14 17 -14 -10 -5 -26 9 -28 9 -16 -5 12 -14 10 -14
-16 -5 -27 9 -28 9 -10 -5 23 -17 18 -19 -19 -5 -17 7 -24 7 -20 0 3 -6 1 -10
-5 -10 -6 0 -8 -4 -5 -10 3 -5 1 -10 -6 -10 -7 0 -4 -7 7 -14 17 -13 14 -13
-21 -2 -65 22 -72 26 -35 21 l35 -4 -37 12 c-21 7 -44 21 -53 32 -13 18 -13
16 0 -22 13 -40 13 -43 -3 -44 -14 0 -14 -2 3 -9 17 -7 14 -9 -15 -11 -31 -2
-32 -2 -7 -6 46 -7 30 -18 -25 -16 -29 0 -41 -1 -25 -4 20 -3 27 -10 26 -26
-1 -17 -2 -18 -6 -4 -2 9 -12 17 -21 17 -11 0 -13 -3 -6 -8 7 -4 8 -15 3 -27
-4 -11 -8 -14 -8 -7 -1 18 -81 16 -81 -2 0 -8 -10 -17 -22 -19 -22 -4 -22 -4
2 -6 20 -2 16 -5 -20 -17 -56 -17 -75 -17 -35 1 17 8 24 14 17 15 -7 0 -23 -5
-34 -11 -11 -6 -23 -7 -27 -3 -3 5 -15 16 -26 24 -20 14 -20 14 -2 -7 11 -12
16 -27 11 -34 -4 -7 -3 -10 4 -5 6 3 13 2 16 -3 6 -9 -32 -23 -43 -16 -3 2
-19 31 -36 64 -16 33 -33 61 -37 61 -13 0 -9 -13 13 -50 12 -19 28 -52 35 -73
14 -38 13 -38 -18 -51 -27 -12 -29 -15 -12 -19 14 -3 11 -6 -14 -12 -20 -5
-29 -11 -22 -15 8 -5 7 -9 -4 -13 -9 -4 -16 -2 -16 3 0 6 -12 10 -27 9 l-28
-1 25 -8 25 -8 -25 -1 c-18 -1 -21 -4 -12 -10 17 -10 -5 -20 -46 -22 -27 -1
-27 -1 3 -9 28 -7 26 -8 -15 -9 -35 -1 -42 -4 -30 -12 15 -11 4 -10 -76 6 -28
5 -28 5 3 -7 51 -21 49 -28 -3 -12 -26 8 -55 20 -63 28 -22 19 -82 48 -87 43
-3 -3 11 -14 30 -26 54 -34 124 -131 94 -131 -7 0 -3 -7 8 -15 15 -12 15 -14
2 -9 -9 3 -25 1 -35 -6 -16 -10 -15 -10 5 -5 23 7 23 6 5 -14 -9 -12 -22 -21
-28 -21 -5 0 -4 4 3 9 10 6 7 11 -15 18 -39 14 -56 7 -41 -17 20 -31 35 -31
-242 -6 l-65 6 60 -15 c33 -8 81 -14 107 -15 94 0 325 -48 412 -84 29 -12 76
-65 76 -86 0 -3 -14 -13 -30 -22 -17 -9 -30 -23 -30 -29 0 -7 10 -3 23 9 30
29 44 28 49 -3 3 -14 1 -25 -6 -25 -6 0 -4 -4 3 -9 12 -8 8 -11 -15 -16 -48
-11 -52 -15 -9 -11 37 3 38 3 13 -7 -16 -6 -28 -17 -28 -25 0 -7 -5 -10 -10
-7 -6 4 -8 10 -5 15 3 4 -4 6 -15 3 -11 -3 -20 -9 -20 -14 0 -5 -15 -8 -32 -8
l-33 1 30 8 30 8 -32 1 c-18 0 -33 -3 -33 -8 0 -9 -34 -7 -75 6 -20 6 -20 6 0
13 17 6 16 7 -8 12 -15 3 -27 2 -27 -2 0 -15 -32 -20 -52 -9 -14 8 -23 8 -27
1 -4 -7 -12 -8 -21 -2 -12 8 -11 10 5 11 15 0 13 3 -9 11 -22 8 -31 8 -34 0
-2 -6 -10 -8 -18 -5 -13 5 -13 7 -2 14 10 7 9 9 -4 9 -10 0 -18 -4 -18 -10 0
-5 -7 -7 -16 -3 -13 5 -13 7 -2 14 8 5 -28 9 -87 10 -59 1 -90 4 -75 8 24 7
23 8 -10 13 -23 3 -39 0 -50 -10 -13 -14 -13 -15 2 -9 10 3 20 2 23 -3 3 -5
-2 -10 -12 -12 -15 -3 -15 -4 1 -20 10 -10 14 -18 10 -18 -4 0 3 -9 16 -20 19
-17 20 -21 7 -26 -10 -3 -26 4 -41 18 -54 50 -91 72 -109 64 -9 -3 -8 -5 1 -5
7 -1 10 -6 6 -13 -4 -6 -3 -8 4 -4 6 3 24 -7 40 -24 17 -16 27 -30 24 -30 -4
0 -1 -4 6 -9 11 -7 11 -9 -2 -14 -9 -4 -16 -2 -16 4 0 5 -6 9 -12 8 -16 -3
-78 11 -98 22 -29 17 -123 50 -127 45 -6 -6 48 -30 191 -86 l108 -43 -48 -19
c-59 -22 -65 -22 -39 -1 l20 16 -20 -8 c-11 -4 -26 -10 -34 -13 -8 -3 -12 -1
-9 4 3 5 -10 10 -29 11 -19 1 -33 0 -32 -1 2 -2 21 -15 43 -30 l39 -26 -34
-15 c-19 -8 -28 -14 -21 -15 7 0 26 7 42 15 29 15 30 15 29 -7 0 -13 -3 -17
-6 -11 -3 10 -12 9 -39 -2 -21 -8 -34 -10 -34 -4 0 12 -59 2 -74 -11 -5 -5 1
-6 14 -3 16 4 21 3 16 -5 -4 -7 -21 -12 -37 -12 -17 0 -32 -6 -35 -15 -4 -9
-20 -16 -43 -16 l-36 -2 40 -7 40 -7 -50 -3 -50 -3 40 -7 c22 -4 35 -8 28 -9
-7 0 -10 -9 -7 -18 5 -17 5 -17 -6 0 -7 11 -22 17 -43 16 l-32 -2 30 -6 c20
-4 31 -13 33 -26 2 -15 0 -17 -6 -6 -9 13 -101 35 -110 26 -3 -2 13 -7 35 -11
30 -4 39 -11 40 -26 2 -19 1 -19 -11 -3 -8 11 -27 18 -54 19 -22 0 -36 3 -31
7 6 3 3 9 -8 11 -10 3 -27 9 -38 13 -16 5 -17 5 -5 -4 13 -9 13 -11 0 -11 -8
-1 -1 -8 15 -17 17 -9 25 -18 17 -21 -6 -2 -10 -8 -6 -13 3 -5 0 -9 -6 -9 -7
0 -10 6 -7 14 5 14 -40 42 -51 31 -3 -3 1 -5 9 -5 11 0 12 -2 1 -9 -11 -7 -10
-9 3 -14 9 -4 13 -3 10 3 -3 6 -2 10 3 10 5 0 12 -9 15 -20 4 -17 2 -20 -16
-15 -17 5 -19 4 -7 -4 8 -6 24 -8 35 -6 11 3 14 2 6 -1 -11 -5 -9 -9 6 -18 16
-8 18 -14 9 -22 -8 -7 -32 -1 -85 22 -40 17 -67 34 -60 36 8 3 -6 8 -31 13
-25 4 -49 10 -55 14 -16 12 -90 31 -116 31 -13 -1 8 -11 46 -24 39 -12 79 -28
90 -34 11 -7 33 -16 48 -22 16 -5 26 -14 23 -19 -6 -9 58 -26 83 -22 7 1 10
-2 7 -8 -4 -5 2 -15 13 -20 30 -16 40 -12 11 4 -16 9 -19 14 -9 15 8 0 24 -6
34 -14 18 -13 18 -14 -3 -20 -12 -4 -22 -12 -22 -17 0 -6 -5 -7 -11 -3 -8 5
-8 8 0 14 7 4 -11 16 -44 28 -67 26 -86 28 -33 4 33 -15 35 -18 20 -32 -14
-13 -15 -12 -10 2 5 13 -4 19 -44 28 -36 9 -46 15 -37 22 10 6 2 8 -23 6 -21
-2 -38 -1 -38 4 0 4 -23 6 -50 4 -29 -1 -45 1 -38 5 7 5 22 9 32 9 11 0 17 3
13 6 -3 3 -25 3 -48 -1 -29 -5 -38 -10 -28 -16 10 -6 3 -9 -21 -10 -19 0 -44
-4 -55 -9 -13 -6 5 -7 50 -4 54 4 67 3 55 -6 -12 -9 -10 -11 13 -7 15 2 30 0
33 -4 3 -5 -12 -10 -33 -11 l-38 -1 45 -7 c30 -5 36 -7 17 -8 -23 -2 -27 -6
-24 -24 2 -13 2 -18 0 -12 -2 6 -16 9 -31 7 -23 -3 -24 -2 -7 6 19 9 19 10 -2
10 -14 1 -23 -5 -23 -14 0 -8 -8 -15 -17 -16 -12 -1 -10 -4 7 -9 14 -4 18 -8
9 -9 -12 -1 -15 -8 -11 -26 3 -19 0 -25 -14 -26 -18 0 -18 -1 1 -9 11 -5 14
-9 8 -9 -7 -1 -13 -8 -13 -18 0 -13 -3 -13 -18 5 -13 14 -22 18 -33 11 -12 -7
-12 -9 0 -9 8 0 12 -2 9 -5 -3 -3 -13 -3 -22 1 -15 6 -15 7 1 20 21 16 10 18
-18 4 -11 -7 -19 -7 -19 -1 0 5 6 12 13 15 6 3 1 3 -12 0 -15 -4 -21 -2 -17 4
3 6 -17 3 -46 -6 -31 -10 -44 -18 -33 -21 15 -2 15 -5 4 -13 -10 -6 -3 -7 21
-4 19 3 29 3 21 0 -10 -5 -6 -11 15 -20 28 -13 28 -13 3 -8 -16 3 -30 1 -35
-7 -5 -8 -3 -11 7 -7 28 11 19 -28 -9 -40 l-27 -11 30 5 30 4 -29 -11 c-19 -8
-24 -14 -16 -19 9 -6 7 -10 -8 -14 -18 -6 -20 -15 -20 -81 0 -41 2 -75 5 -75
11 0 61 30 72 44 15 17 36 22 26 6 -4 -6 1 -7 12 -3 16 6 16 5 4 -10 -12 -15
-12 -17 3 -11 35 13 14 -8 -26 -26 -24 -11 -36 -20 -28 -20 9 0 6 -6 -10 -16
-21 -12 -21 -14 -4 -9 12 3 29 2 39 -1 15 -6 12 -10 -16 -25 -42 -22 -31 -24
18 -4 49 21 55 18 13 -6 -19 -11 -26 -17 -15 -13 48 16 57 14 25 -6 -28 -17
-30 -20 -10 -15 20 5 18 2 -10 -15 -28 -17 -30 -20 -10 -15 24 6 24 5 6 -9
-15 -12 -16 -16 -5 -16 8 -1 3 -7 -11 -15 -16 -9 -19 -15 -10 -15 10 -1 7 -5
-7 -12 -13 -6 -23 -17 -23 -25 0 -7 -6 -13 -14 -13 -8 0 -17 -4 -21 -9 -3 -6
7 -6 27 -1 45 14 47 4 1 -11 -32 -10 -35 -13 -18 -20 20 -8 20 -8 0 -8 -17 -1
-17 -3 -5 -11 13 -9 13 -10 0 -11 -8 0 -4 -4 10 -8 15 -4 26 -15 28 -29 2 -13
10 -22 21 -22 30 0 20 -48 -17 -76 -18 -14 -32 -34 -32 -45 0 -10 -4 -19 -10
-19 -5 0 -10 -14 -10 -32 l0 -32 57 55 c158 152 319 251 446 275 13 2 44 11
68 19 24 9 77 18 119 22 41 3 95 14 120 23 25 10 66 21 92 24 54 6 284 92 369
138 54 28 62 30 116 22 32 -5 71 -8 87 -6 27 2 104 55 138 97 30 34 23 115
-17 218 -20 49 -34 94 -32 100 2 8 41 12 113 12 100 0 113 2 158 28 27 15 54
27 61 27 24 0 62 56 74 110 19 90 -7 151 -85 196 -59 35 -50 39 106 49 63 3
147 13 185 21 39 8 90 14 115 14 25 0 86 7 135 15 50 9 172 22 272 29 108 9
190 20 203 28 32 19 60 81 60 132 0 36 -6 52 -31 80 -17 20 -45 39 -62 44 -18
5 -111 5 -212 0 -99 -5 -281 -13 -405 -18 -206 -8 -367 -21 -446 -35 -22 -4
-45 3 -81 23 l-52 28 17 37 c12 26 53 67 132 132 157 128 256 195 493 332 224
129 257 158 257 224 0 110 -76 154 -195 110z m-98 -247 c-3 -3 -12 -4 -19 -1
-8 3 -5 6 6 6 11 1 17 -2 13 -5z m-97 -48 c0 -3 -4 -8 -10 -11 -5 -3 -10 -1
-10 4 0 6 5 11 10 11 6 0 10 -2 10 -4z m-107 -53 c-7 -2 -19 -2 -25 0 -7 3 -2
5 12 5 14 0 19 -2 13 -5z m-163 -93 c-8 -5 -19 -10 -25 -10 -5 0 -3 5 5 10 8
5 20 10 25 10 6 0 3 -5 -5 -10z m954 -414 c36 -15 76 -60 76 -85 0 -10 -9 -27
-20 -39 -13 -14 -16 -22 -8 -22 9 0 9 -3 -2 -10 -8 -5 -24 -9 -35 -9 l-20 0
20 9 c29 12 2 12 -31 0 -23 -9 -25 -9 -15 4 10 12 8 13 -10 9 -15 -4 -20 -3
-15 5 5 9 0 9 -19 2 -37 -14 -44 -12 -15 5 33 19 21 19 -26 -1 -33 -14 -36
-14 -26 -1 11 13 8 14 -30 6 -52 -12 -73 -20 -36 -15 15 1 25 -1 22 -5 -3 -5
-12 -9 -20 -9 -8 0 -14 -8 -15 -17 0 -11 -3 -13 -6 -5 -2 6 -21 12 -41 12 -28
0 -33 3 -22 10 10 6 11 10 3 10 -7 0 -13 10 -14 23 0 12 -7 38 -15 57 -14 35
-14 34 -10 -32 3 -54 0 -68 -11 -68 -11 0 -13 9 -10 35 3 20 -1 42 -9 52 -12
16 -14 14 -15 -22 -1 -22 -2 -48 -2 -57 0 -11 -8 -18 -21 -19 -20 0 -21 -1 -1
-9 14 -6 4 -8 -32 -7 -41 0 -53 4 -53 16 0 13 -2 13 -9 2 -6 -10 -13 -11 -29
-2 -11 6 -24 11 -29 11 -4 -1 4 -8 20 -16 23 -12 26 -18 17 -34 -6 -11 -13
-20 -16 -20 -2 0 0 9 6 19 8 16 5 21 -22 30 -17 6 -34 9 -36 6 -3 -3 -1 -5 4
-5 6 0 19 -7 30 -14 17 -13 14 -13 -21 -1 -22 8 -47 14 -55 14 -13 1 -13 0 0
-10 12 -8 9 -10 -13 -6 -18 3 -31 -1 -38 -12 -9 -14 -10 -14 -5 2 4 11 0 17
-12 18 -9 1 -1 5 18 9 l35 7 -38 2 c-21 0 -36 5 -33 10 3 5 -1 11 -9 14 -9 4
-12 1 -8 -9 4 -10 -3 -14 -27 -14 -18 0 -29 4 -25 10 3 6 -3 10 -15 10 -12 0
-18 -4 -15 -10 3 -5 2 -10 -4 -10 -7 0 -7 -8 -1 -24 8 -22 6 -24 -23 -29 -18
-2 -33 -1 -35 4 -6 14 -22 11 -20 -3 2 -8 -7 -12 -25 -11 -15 1 -25 -2 -22 -7
3 -4 -4 -6 -15 -3 -16 4 -19 2 -14 -11 3 -9 11 -16 17 -16 6 0 7 -3 4 -7 -4
-3 -16 3 -27 15 -12 12 -30 22 -41 22 -14 0 -19 6 -18 18 3 15 -10 64 -28 112
-9 22 -14 50 -9 50 2 0 39 6 82 14 44 8 105 18 136 22 57 6 57 6 63 -22 11
-47 16 -52 11 -11 -3 24 -1 40 7 43 7 2 91 6 187 9 96 3 243 9 325 13 83 5
167 9 188 10 21 1 52 -4 71 -12z m-291 -183 c-13 -2 -33 -2 -45 0 -13 2 -3 4
22 4 25 0 35 -2 23 -4z m-1370 -10 c-7 -2 -19 -2 -25 0 -7 3 -2 5 12 5 14 0
19 -2 13 -5z m930 0 c-7 -2 -21 -2 -30 0 -10 3 -4 5 12 5 17 0 24 -2 18 -5z
m302 -13 c3 -6 -1 -7 -9 -4 -18 7 -21 14 -7 14 6 0 13 -4 16 -10z m113 3 c-10
-2 -26 -2 -35 0 -10 3 -2 5 17 5 19 0 27 -2 18 -5z m-1247 -26 c-10 -9 -11 -8
-5 6 3 10 9 15 12 12 3 -3 0 -11 -7 -18z m832 16 c-7 -2 -21 -2 -30 0 -10 3
-4 5 12 5 17 0 24 -2 18 -5z m-100 -57 c-3 -4 -9 -2 -14 5 -13 22 -11 31 5 17
8 -7 12 -17 9 -22z m-638 14 c3 -6 -1 -7 -9 -4 -18 7 -21 14 -7 14 6 0 13 -4
16 -10z m162 4 c-3 -3 -12 -4 -19 -1 -8 3 -5 6 6 6 11 1 17 -2 13 -5z m106
-21 c-7 -2 -21 -2 -30 0 -10 3 -4 5 12 5 17 0 24 -2 18 -5z m-38 -21 c-32 -3
-36 -6 -20 -12 19 -8 19 -9 -2 -9 -23 -1 -30 9 -16 22 3 4 22 6 42 5 l36 -1
-40 -5z m10 -63 c15 -7 11 -8 -18 -5 -21 2 -41 7 -44 10 -10 9 40 6 62 -5z
m-512 -6 c-7 -2 -19 -2 -25 0 -7 3 -2 5 12 5 14 0 19 -2 13 -5z m540 -20 c-7
-2 -19 -2 -25 0 -7 3 -2 5 12 5 14 0 19 -2 13 -5z m241 -47 c40 -37 45 -59 19
-76 -17 -11 -17 -11 0 -6 25 8 21 -9 -5 -23 l-23 -11 24 6 c15 4 21 2 17 -4
-3 -6 -1 -12 5 -14 6 -2 0 -9 -13 -15 -24 -11 -26 -9 -51 55 -38 98 -42 122
-24 122 9 0 32 -15 51 -34z m-844 4 c0 -5 -5 -10 -11 -10 -5 0 -7 5 -4 10 3 6
8 10 11 10 2 0 4 -4 4 -10z m775 -50 c-3 -5 -2 -10 4 -10 14 0 7 -33 -9 -38
-7 -3 -10 0 -6 7 4 6 0 11 -11 11 -15 0 -16 2 -3 10 8 5 11 10 7 10 -12 0 2
20 14 20 6 0 7 -4 4 -10z m-962 -17 c-7 -2 -19 -2 -25 0 -7 3 -2 5 12 5 14 0
19 -2 13 -5z m-13 -23 c0 -5 -5 -10 -11 -10 -5 0 -7 5 -4 10 3 6 8 10 11 10 2
0 4 -4 4 -10z m920 -20 c-8 -5 -19 -10 -25 -10 -5 0 -3 5 5 10 8 5 20 10 25
10 6 0 3 -5 -5 -10z m77 -4 c0 -8 -8 -11 -20 -8 -14 4 -16 7 -5 13 19 12 25
11 25 -5z m-61 -13 c-4 -4 8 -13 26 -20 l33 -13 -30 3 c-28 2 -45 13 -45 30 0
4 5 7 12 7 6 0 8 -3 4 -7z m-938 -10 c-11 -3 -15 -11 -12 -21 5 -15 4 -15 -5
-2 -16 23 -13 30 12 29 16 -1 17 -3 5 -6z m1079 -27 c-13 -10 -14 -15 -5 -18
7 -3 -3 -10 -22 -16 -32 -11 -33 -10 -16 3 14 11 16 15 5 15 -8 1 -3 7 11 15
32 18 51 19 27 1z m-1220 -12 c-3 -3 -12 -4 -19 -1 -8 3 -5 6 6 6 11 1 17 -2
13 -5z m798 -33 c-3 -6 -11 -11 -16 -11 -5 0 -4 6 3 14 14 16 24 13 13 -3z
m43 5 c-7 -8 -15 -12 -17 -11 -5 6 10 25 20 25 5 0 4 -6 -3 -14z m-894 -5 c3
-5 -1 -11 -9 -14 -9 -4 -12 -1 -8 9 6 16 10 17 17 5z m59 -38 c-7 -2 -19 -2
-25 0 -7 3 -2 5 12 5 14 0 19 -2 13 -5z m-338 -33 c18 -8 17 -9 -7 -9 -16 -1
-28 4 -28 9 0 12 8 12 35 0z m277 -20 c-9 -11 -20 -20 -25 -20 -5 0 -1 7 7 16
9 8 16 20 16 25 0 6 4 8 10 4 5 -3 2 -14 -8 -25z m-228 -8 c2 -4 -13 -6 -35
-4 -21 2 -39 6 -39 8 0 7 69 4 74 -4z m-14 -20 c0 -5 -7 -9 -15 -9 -8 0 -15 4
-15 9 0 4 7 8 15 8 8 0 15 -4 15 -8z m43 -9 c-7 -2 -19 -2 -25 0 -7 3 -2 5 12
5 14 0 19 -2 13 -5z m222 -3 c-3 -5 -12 -10 -18 -10 -7 0 -6 4 3 10 19 12 23
12 15 0z m-146 -16 c13 -11 -8 -10 -34 2 l-30 13 30 -6 c17 -3 32 -7 34 -9z
m-252 0 c-3 -3 -12 -4 -19 -1 -8 3 -5 6 6 6 11 1 17 -2 13 -5z m151 -1 c-10
-2 -26 -2 -35 0 -10 3 -2 5 17 5 19 0 27 -2 18 -5z m79 -20 c-7 -7 -57 8 -57
18 0 4 14 3 31 -3 16 -6 28 -12 26 -15z m-104 0 c-13 -2 -33 -2 -45 0 -13 2
-3 4 22 4 25 0 35 -2 23 -4z m67 -9 c0 -2 -9 -4 -20 -4 -11 0 -20 4 -20 9 0 5
9 7 20 4 11 -3 20 -7 20 -9z m80 6 c-8 -5 -19 -10 -25 -10 -5 0 -3 5 5 10 8 5
20 10 25 10 6 0 3 -5 -5 -10z m-203 -16 c-3 -3 -12 -4 -19 -1 -8 3 -5 6 6 6
11 1 17 -2 13 -5z m168 -4 c3 -5 1 -10 -4 -10 -6 0 -11 5 -11 10 0 6 2 10 4
10 3 0 8 -4 11 -10z m-427 -38 c2 -7 -1 -12 -8 -12 -6 0 -9 4 -6 9 4 5 1 12
-4 14 -6 3 -5 4 2 3 6 -1 14 -8 16 -14z m289 -8 c-3 -3 -12 -4 -19 -1 -8 3 -5
6 6 6 11 1 17 -2 13 -5z m46 -1 c-7 -2 -19 -2 -25 0 -7 3 -2 5 12 5 14 0 19
-2 13 -5z m-70 -20 c-7 -2 -19 -2 -25 0 -7 3 -2 5 12 5 14 0 19 -2 13 -5z m77
-1 c0 -5 -13 -7 -30 -4 -16 2 -30 6 -30 8 0 2 14 4 30 4 17 0 30 -4 30 -8z
m830 -1 c-32 -6 -30 -7 26 -14 33 -3 69 -10 79 -13 18 -7 18 -8 -1 -16 -13 -6
-8 -7 16 -3 42 6 71 -8 53 -26 -9 -9 -19 -9 -43 1 -17 7 -33 11 -35 8 -3 -3
13 -11 35 -18 29 -9 39 -18 35 -28 -3 -10 0 -12 10 -8 20 7 19 4 -7 -18 -16
-14 -20 -15 -15 -3 4 11 -5 18 -38 26 -58 14 -69 13 -25 -4 19 -7 27 -14 18
-14 -10 -1 -18 -4 -18 -8 0 -5 -33 -7 -72 -5 -48 2 -68 0 -59 -7 10 -6 -1 -10
-36 -12 -32 -3 -55 1 -62 9 -13 13 -11 14 34 26 11 3 3 4 -17 1 -21 -2 -38 0
-38 6 0 5 10 10 23 10 20 2 20 2 -3 7 -24 4 -24 5 -5 13 16 8 15 9 -8 5 -37
-5 -22 10 23 22 l35 10 -30 2 -30 2 30 8 c28 7 28 8 5 9 -20 1 -22 3 -10 11 8
5 26 10 40 11 23 0 23 1 5 9 -14 6 3 8 50 8 52 0 61 -2 35 -7z m93 -8 c-7 -2
-19 -2 -25 0 -7 3 -2 5 12 5 14 0 19 -2 13 -5z m-980 -10 c-7 -2 -21 -2 -30 0
-10 3 -4 5 12 5 17 0 24 -2 18 -5z m7 -22 c0 -10 -26 -9 -36 2 -4 4 2 7 14 7
12 0 22 -4 22 -9z m-17 -68 c-7 -2 -19 -2 -25 0 -7 3 -2 5 12 5 14 0 19 -2 13
-5z m-330 -45 c-2 -4 -10 -2 -17 5 -8 6 -12 15 -9 19 2 4 10 2 17 -5 8 -6 12
-15 9 -19z m410 15 c-7 -2 -19 -2 -25 0 -7 3 -2 5 12 5 14 0 19 -2 13 -5z
m-328 -13 c3 -6 -1 -7 -9 -4 -18 7 -21 14 -7 14 6 0 13 -4 16 -10z m232 -6
c-3 -3 -12 -4 -19 -1 -8 3 -5 6 6 6 11 1 17 -2 13 -5z m941 -1 c-10 -2 -26 -2
-35 0 -10 3 -2 5 17 5 19 0 27 -2 18 -5z m-1233 -33 c-27 -12 -43 -12 -25 0 8
5 22 9 30 9 10 0 8 -3 -5 -9z m458 -5 c-3 -9 -8 -14 -10 -11 -3 3 -2 9 2 15 9
16 15 13 8 -4z m-303 -68 c0 -4 -6 -2 -14 5 -8 7 -12 17 -9 22 5 8 23 -12 23
-27z m143 16 c-7 -2 -19 -2 -25 0 -7 3 -2 5 12 5 14 0 19 -2 13 -5z m-10 -20
c-7 -2 -19 -2 -25 0 -7 3 -2 5 12 5 14 0 19 -2 13 -5z m-173 -53 c-8 -5 -19
-10 -25 -10 -5 0 -3 5 5 10 8 5 20 10 25 10 6 0 3 -5 -5 -10z m360 0 c8 -5 11
-10 5 -10 -5 0 -17 5 -25 10 -8 5 -10 10 -5 10 6 0 17 -5 25 -10z m-137 -17
c-7 -2 -19 -2 -25 0 -7 3 -2 5 12 5 14 0 19 -2 13 -5z m20 -20 c-7 -2 -19 -2
-25 0 -7 3 -2 5 12 5 14 0 19 -2 13 -5z m-343 -143 c-8 -5 -19 -10 -25 -10 -5
0 -3 5 5 10 8 5 20 10 25 10 6 0 3 -5 -5 -10z"/>
<path d="M1998 1803 c7 -3 16 -2 19 1 4 3 -2 6 -13 5 -11 0 -14 -3 -6 -6z"/>
<path d="M1910 1775 c-59 -32 -46 -32 22 0 29 14 46 25 38 24 -8 0 -35 -11
-60 -24z"/>
<path d="M2008 1783 c6 -2 18 -2 25 0 6 3 1 5 -13 5 -14 0 -19 -2 -12 -5z"/>
<path d="M1850 1770 c-8 -5 -10 -10 -5 -10 6 0 17 5 25 10 8 5 11 10 5 10 -5
0 -17 -5 -25 -10z"/>
<path d="M1318 1063 c6 -2 18 -2 25 0 6 3 1 5 -13 5 -14 0 -19 -2 -12 -5z"/>
<path d="M1290 1046 c0 -2 13 -6 29 -8 17 -2 28 -1 25 4 -5 8 -54 12 -54 4z"/>
<path d="M1410 1040 c8 -5 20 -10 25 -10 6 0 3 5 -5 10 -8 5 -19 10 -25 10 -5
0 -3 -5 5 -10z"/>
<path d="M1283 1023 c9 -2 23 -2 30 0 6 3 -1 5 -18 5 -16 0 -22 -2 -12 -5z"/>
<path d="M1360 1010 c8 -5 22 -9 30 -9 10 0 8 3 -5 9 -27 12 -43 12 -25 0z"/>
<path d="M1263 1003 c9 -2 23 -2 30 0 6 3 -1 5 -18 5 -16 0 -22 -2 -12 -5z"/>
<path d="M1308 973 c12 -2 30 -2 40 0 9 3 -1 5 -23 4 -22 0 -30 -2 -17 -4z"/>
<path d="M1153 953 c9 -2 25 -2 35 0 9 3 1 5 -18 5 -19 0 -27 -2 -17 -5z"/>
<path d="M1618 2283 c7 -3 16 -2 19 1 4 3 -2 6 -13 5 -11 0 -14 -3 -6 -6z"/>
<path d="M1588 2263 c7 -3 16 -2 19 1 4 3 -2 6 -13 5 -11 0 -14 -3 -6 -6z"/>
<path d="M1257 2215 c-9 -20 -17 -43 -17 -52 0 -13 -3 -13 -15 -3 -12 10 -15
10 -15 -3 0 -9 6 -20 14 -24 8 -4 16 -17 19 -28 3 -13 5 -7 6 15 1 19 10 55
21 79 23 49 23 51 12 51 -5 0 -16 -16 -25 -35z"/>
<path d="M1083 2093 c9 -2 23 -2 30 0 6 3 -1 5 -18 5 -16 0 -22 -2 -12 -5z"/>
<path d="M927 1839 c7 -7 15 -10 18 -7 3 3 -2 9 -12 12 -14 6 -15 5 -6 -5z"/>
<path d="M1278 1838 c6 -6 18 -8 28 -6 14 3 12 5 -9 10 -19 3 -25 2 -19 -4z"/>
<path d="M1442 1832 c-8 -6 -1 -14 24 -26 20 -9 38 -15 41 -13 2 2 -10 10 -27
17 -23 9 -28 15 -18 21 7 5 9 9 3 9 -5 0 -16 -4 -23 -8z"/>
<path d="M1415 1804 c88 -37 98 -38 30 -4 -33 16 -67 30 -75 30 -8 0 12 -12
45 -26z"/>
<path d="M1540 1801 c8 -5 33 -12 55 -15 28 -4 33 -3 15 2 -46 16 -86 23 -70
13z"/>
<path d="M1588 1763 c6 -2 18 -2 25 0 6 3 1 5 -13 5 -14 0 -19 -2 -12 -5z"/>
<path d="M878 1563 c6 -2 18 -2 25 0 6 3 1 5 -13 5 -14 0 -19 -2 -12 -5z"/>
<path d="M813 1553 c9 -2 23 -2 30 0 6 3 -1 5 -18 5 -16 0 -22 -2 -12 -5z"/>
<path d="M808 1533 c12 -2 30 -2 40 0 9 3 -1 5 -23 4 -22 0 -30 -2 -17 -4z"/>
<path d="M620 1450 c8 -5 20 -10 25 -10 6 0 3 5 -5 10 -8 5 -19 10 -25 10 -5
0 -3 -5 5 -10z"/>
<path d="M688 1453 c7 -3 16 -2 19 1 4 3 -2 6 -13 5 -11 0 -14 -3 -6 -6z"/>
<path d="M438 1403 c7 -3 16 -2 19 1 4 3 -2 6 -13 5 -11 0 -14 -3 -6 -6z"/>
<path d="M495 1390 c27 -12 43 -12 25 0 -8 5 -22 9 -30 9 -10 0 -8 -3 5 -9z"/>
<path d="M535 1351 c22 -10 51 -21 65 -25 14 -3 7 2 -15 13 -22 10 -51 21 -65
25 -14 3 -7 -2 15 -13z"/>
<path d="M238 1263 c7 -3 16 -2 19 1 4 3 -2 6 -13 5 -11 0 -14 -3 -6 -6z"/>
<path d="M18 1183 c7 -3 16 -2 19 1 4 3 -2 6 -13 5 -11 0 -14 -3 -6 -6z"/>
<path d="M53 1176 c-44 -16 -53 -28 -13 -16 19 5 38 14 44 20 11 11 12 12 -31
-4z"/>
</g>
</svg>
